<?xml version="1.0" encoding="UTF-8"?>
<!DOCTYPE svg PUBLIC "-//W3C//DTD SVG 1.1//EN" "http://www.w3.org/Graphics/SVG/1.1/DTD/svg11.dtd">
<svg xmlns="http://www.w3.org/2000/svg" version="1.1" width="1160px" height="688px" style="shape-rendering:geometricPrecision; text-rendering:geometricPrecision; image-rendering:optimizeQuality; fill-rule:evenodd; clip-rule:evenodd" xmlns:xlink="http://www.w3.org/1999/xlink">
<g><path style="opacity:0.923" fill="#d7d7db" d="M 962.5,219.5 C 757.5,219.333 552.5,219.5 347.5,220C 332.428,221.935 317.761,225.435 303.5,230.5C 310.133,226.227 317.466,223.394 325.5,222C 335.749,220.012 346.082,218.679 356.5,218C 553.5,217.333 750.5,217.333 947.5,218C 952.684,218.174 957.684,218.674 962.5,219.5 Z"/></g>
<g><path style="opacity:0.995" fill="#fefefe" d="M 962.5,219.5 C 974.603,219.046 982.937,224.38 987.5,235.5C 988.153,239.235 988.986,242.901 990,246.5C 991.501,295.157 991.835,343.824 991,392.5C 982.371,450.02 952.205,491.52 900.5,517C 878.903,525.266 856.569,530.099 833.5,531.5C 657.334,530.334 481,530.167 304.5,531C 306.058,531.21 307.391,531.71 308.5,532.5C 284.487,532.645 260.487,532.145 236.5,531C 224.254,528.91 215.254,522.41 209.5,511.5C 208.702,509.922 208.202,508.256 208,506.5C 207.819,473.477 207.319,440.477 206.5,407.5C 207.141,389.353 207.808,371.353 208.5,353.5C 210.826,342.864 213.492,332.197 216.5,321.5C 216.678,318.784 217.178,316.117 218,313.5C 221.314,308.025 224.314,302.358 227,296.5C 241.022,274.229 258.855,255.563 280.5,240.5C 288.004,236.713 295.671,233.379 303.5,230.5C 317.761,225.435 332.428,221.935 347.5,220C 552.5,219.5 757.5,219.333 962.5,219.5 Z"/></g>
<g><path style="opacity:1" fill="#d46a7a" d="M 310.5,335.5 C 309.51,329.69 309.177,323.69 309.5,317.5C 307.167,317.5 304.833,317.5 302.5,317.5C 302.5,333.5 302.5,349.5 302.5,365.5C 304.833,365.5 307.167,365.5 309.5,365.5C 309.175,357.981 309.508,350.648 310.5,343.5C 310.5,351.167 310.5,358.833 310.5,366.5C 307.5,366.5 304.5,366.5 301.5,366.5C 301.5,349.833 301.5,333.167 301.5,316.5C 304.5,316.5 307.5,316.5 310.5,316.5C 310.5,322.833 310.5,329.167 310.5,335.5 Z"/></g>
<g><path style="opacity:1" fill="#ec556b" d="M 371.5,335.5 C 372.833,334.833 374.167,334.167 375.5,333.5C 383.051,330.942 389.384,332.608 394.5,338.5C 395.338,338.842 395.672,339.508 395.5,340.5C 395.666,345.179 395.499,349.845 395,354.5C 394,356.5 393,358.5 392,360.5C 391.586,360.043 391.086,359.709 390.5,359.5C 389.289,360.274 389.289,361.107 390.5,362C 389.551,362.617 388.718,362.451 388,361.5C 387.51,362.793 387.343,364.127 387.5,365.5C 382.638,365.882 377.972,365.216 373.5,363.5C 371.797,362.34 371.131,363.007 371.5,365.5C 368.833,365.5 366.167,365.5 363.5,365.5C 363.5,349.5 363.5,333.5 363.5,317.5C 365.833,317.5 368.167,317.5 370.5,317.5C 370.177,323.69 370.51,329.69 371.5,335.5 Z"/></g>
<g><path style="opacity:1" fill="#ec556b" d="M 517.5,335.5 C 518.833,334.833 520.167,334.167 521.5,333.5C 526.486,332.231 531.486,332.231 536.5,333.5C 539.231,335.071 541.065,337.405 542,340.5C 543.334,348.2 542.334,355.533 539,362.5C 537.512,364.16 535.679,365.16 533.5,365.5C 528.638,365.882 523.972,365.216 519.5,363.5C 517.797,362.34 517.131,363.007 517.5,365.5C 514.833,365.5 512.167,365.5 509.5,365.5C 509.5,349.5 509.5,333.5 509.5,317.5C 511.833,317.5 514.167,317.5 516.5,317.5C 516.177,323.69 516.51,329.69 517.5,335.5 Z"/></g>
<g><path style="opacity:1" fill="#eda2ad" d="M 583.5,316.5 C 584.497,332.992 584.83,349.658 584.5,366.5C 581.167,366.5 577.833,366.5 574.5,366.5C 574.768,364.901 574.434,363.568 573.5,362.5C 573.56,361.957 573.893,361.624 574.5,361.5C 575.429,362.689 575.762,364.022 575.5,365.5C 577.833,365.5 580.167,365.5 582.5,365.5C 583.496,349.342 583.83,333.009 583.5,316.5 Z"/></g>
<g><path style="opacity:1" fill="#ee5369" d="M 644.5,357.5 C 645.635,359.213 647.302,359.88 649.5,359.5C 649.5,361.833 649.5,364.167 649.5,366.5C 646.482,366.665 643.482,366.498 640.5,366C 639.058,365.623 638.058,364.79 637.5,363.5C 636.547,348.202 636.214,332.869 636.5,317.5C 638.833,317.5 641.167,317.5 643.5,317.5C 643.171,331.01 643.504,344.344 644.5,357.5 Z"/></g>
<g><path style="opacity:1" fill="#cf6c7a" d="M 795.5,335.5 C 794.51,329.69 794.177,323.69 794.5,317.5C 792.167,317.5 789.833,317.5 787.5,317.5C 787.5,333.5 787.5,349.5 787.5,365.5C 789.833,365.5 792.167,365.5 794.5,365.5C 794.175,357.981 794.508,350.648 795.5,343.5C 795.5,351.167 795.5,358.833 795.5,366.5C 792.5,366.5 789.5,366.5 786.5,366.5C 786.5,349.833 786.5,333.167 786.5,316.5C 789.5,316.5 792.5,316.5 795.5,316.5C 795.5,322.833 795.5,329.167 795.5,335.5 Z"/></g>
<g><path style="opacity:1" fill="#fcacb8" d="M 930.5,316.5 C 930.83,322.868 930.496,329.202 929.5,335.5C 928.893,335.376 928.56,335.043 928.5,334.5C 929.167,328.5 929.833,322.5 930.5,316.5 Z"/></g>
<g><path style="opacity:1" fill="#f3a0ac" d="M 938.5,316.5 C 939.497,332.992 939.83,349.658 939.5,366.5C 936.167,366.5 932.833,366.5 929.5,366.5C 929.5,365.167 929.5,363.833 929.5,362.5C 930.167,363.5 930.833,364.5 931.5,365.5C 933.5,365.5 935.5,365.5 937.5,365.5C 938.496,349.342 938.83,333.009 938.5,316.5 Z"/></g>
<g><path style="opacity:1" fill="#d06e7c" d="M 371.5,335.5 C 370.51,329.69 370.177,323.69 370.5,317.5C 368.167,317.5 365.833,317.5 363.5,317.5C 363.5,333.5 363.5,349.5 363.5,365.5C 366.167,365.5 368.833,365.5 371.5,365.5C 368.713,366.477 365.713,366.81 362.5,366.5C 362.5,349.833 362.5,333.167 362.5,316.5C 365.5,316.5 368.5,316.5 371.5,316.5C 371.5,322.833 371.5,329.167 371.5,335.5 Z"/></g>
<g><path style="opacity:1" fill="#f7afba" d="M 575.5,316.5 C 575.5,322.833 575.5,329.167 575.5,335.5C 574.508,335.672 573.842,335.338 573.5,334.5C 574.167,328.5 574.833,322.5 575.5,316.5 Z"/></g>
<g><path style="opacity:1" fill="#ef5269" d="M 582.5,365.5 C 580.167,365.5 577.833,365.5 575.5,365.5C 575.762,364.022 575.429,362.689 574.5,361.5C 573.893,361.624 573.56,361.957 573.5,362.5C 572.876,362.083 572.543,361.416 572.5,360.5C 575.245,357.171 576.578,353.338 576.5,349C 576.467,346.39 575.8,344.223 574.5,342.5C 572.788,337.327 569.122,335.161 563.5,336C 564.973,335.29 565.64,334.124 565.5,332.5C 567.5,332.833 569.5,333.167 571.5,333.5C 572.167,333.833 572.833,334.167 573.5,334.5C 573.842,335.338 574.508,335.672 575.5,335.5C 576.489,330.025 576.822,324.358 576.5,318.5C 578.5,318.5 580.5,318.5 582.5,318.5C 582.5,334.167 582.5,349.833 582.5,365.5 Z"/></g>
<g><path style="opacity:1" fill="#dd5a6e" d="M 575.5,316.5 C 578.167,316.5 580.833,316.5 583.5,316.5C 583.83,333.009 583.496,349.342 582.5,365.5C 582.5,349.833 582.5,334.167 582.5,318.5C 580.5,318.5 578.5,318.5 576.5,318.5C 576.822,324.358 576.489,330.025 575.5,335.5C 575.5,329.167 575.5,322.833 575.5,316.5 Z"/></g>
<g><path style="opacity:1" fill="#eb596d" d="M 287.5,363.5 C 279.948,365.777 272.281,366.11 264.5,364.5C 261.593,363.266 259.259,361.266 257.5,358.5C 259.149,356.35 260.982,354.35 263,352.5C 268.674,359.932 275.341,361.266 283,356.5C 283.944,353.653 283.444,351.153 281.5,349C 275.284,347.614 269.284,345.614 263.5,343C 255.827,333.699 257.161,326.032 267.5,320C 273.167,319.333 278.833,319.333 284.5,320C 287.173,321.001 289.507,322.501 291.5,324.5C 290.299,326.909 288.633,328.909 286.5,330.5C 281.324,326.351 275.657,325.517 269.5,328C 267.987,330.916 268.32,333.582 270.5,336C 275.507,337.225 280.507,338.559 285.5,340C 292.78,343.731 295.28,349.565 293,357.5C 291.669,359.996 289.836,361.996 287.5,363.5 Z"/></g>
<g><path style="opacity:1" fill="#e75c70" d="M 344.5,316.5 C 352.888,316.362 354.554,319.529 349.5,326C 344.16,326.989 341.66,324.822 342,319.5C 342.698,318.309 343.531,317.309 344.5,316.5 Z"/></g>
<g><path style="opacity:1" fill="#e27684" d="M 394.5,338.5 C 389.384,332.608 383.051,330.942 375.5,333.5C 380.192,329.696 385.192,329.53 390.5,333C 392.464,334.451 393.797,336.284 394.5,338.5 Z"/></g>
<g><path style="opacity:0.029" fill="#dbdbdd" d="M 216.5,321.5 C 213.492,332.197 210.826,342.864 208.5,353.5C 208.855,344.044 210.521,334.711 213.5,325.5C 214.057,323.668 215.057,322.335 216.5,321.5 Z"/></g>
<g><path style="opacity:1" fill="#ed536a" d="M 310.5,335.5 C 310.435,335.938 310.601,336.272 311,336.5C 316.296,331.283 322.463,330.116 329.5,333C 330.823,333.816 331.489,334.983 331.5,336.5C 332.392,346.134 332.725,355.801 332.5,365.5C 330.167,365.5 327.833,365.5 325.5,365.5C 325.825,357.648 325.492,349.982 324.5,342.5C 321.733,338.256 318.066,337.422 313.5,340C 312.364,341.145 311.364,342.312 310.5,343.5C 309.508,350.648 309.175,357.981 309.5,365.5C 307.167,365.5 304.833,365.5 302.5,365.5C 302.5,349.5 302.5,333.5 302.5,317.5C 304.833,317.5 307.167,317.5 309.5,317.5C 309.177,323.69 309.51,329.69 310.5,335.5 Z"/></g>
<g><path style="opacity:1" fill="#e26979" d="M 427.5,354.5 C 427.579,355.93 427.246,357.264 426.5,358.5C 427.193,359.518 427.859,360.518 428.5,361.5C 428.167,361.5 427.833,361.5 427.5,361.5C 422.913,367.129 417.247,368.629 410.5,366C 409.29,364.961 408.29,363.794 407.5,362.5C 406.778,362.082 406.278,361.416 406,360.5C 405.5,350.839 405.334,341.172 405.5,331.5C 408.5,331.5 411.5,331.5 414.5,331.5C 414.334,340.173 414.5,348.84 415,357.5C 420.123,360.617 424.29,359.617 427.5,354.5 Z"/></g>
<g><path style="opacity:1" fill="#e07483" d="M 536.5,333.5 C 531.486,332.231 526.486,332.231 521.5,333.5C 526.429,329.59 531.429,329.59 536.5,333.5 Z"/></g>
<g><path style="opacity:1" fill="#ea5c6f" d="M 571.5,333.5 C 569.5,333.167 567.5,332.833 565.5,332.5C 565.64,334.124 564.973,335.29 563.5,336C 569.122,335.161 572.788,337.327 574.5,342.5C 575.8,344.223 576.467,346.39 576.5,349C 576.578,353.338 575.245,357.171 572.5,360.5C 572.543,361.416 572.876,362.083 573.5,362.5C 572.657,364.173 571.324,365.34 569.5,366C 559.03,368.772 552.696,364.939 550.5,354.5C 550.413,349.463 550.746,344.463 551.5,339.5C 554.671,332.746 560.004,329.913 567.5,331C 569.066,331.608 570.4,332.442 571.5,333.5 Z"/></g>
<g><path style="opacity:1" fill="#ea596e" d="M 722.5,331.5 C 727.511,331.334 732.511,331.501 737.5,332C 739.286,332.785 740.786,333.951 742,335.5C 743.432,343.054 743.932,350.721 743.5,358.5C 746.826,358.162 748.493,359.662 748.5,363C 748.245,364.326 747.578,365.326 746.5,366C 741.467,367.567 737.633,366.067 735,361.5C 734.052,363.57 732.552,365.07 730.5,366C 716.933,368.77 712.099,363.603 716,350.5C 720.65,347.374 725.817,345.54 731.5,345C 734.384,343.963 735.05,342.129 733.5,339.5C 732.061,338.937 730.561,338.603 729,338.5C 725.234,339.322 721.734,340.489 718.5,342C 716.203,340.737 715.37,338.903 716,336.5C 718.326,334.934 720.492,333.268 722.5,331.5 Z"/></g>
<g><path style="opacity:1" fill="#e9596d" d="M 758.5,331.5 C 762.846,331.334 767.179,331.501 771.5,332C 778.978,334.448 779.311,337.615 772.5,341.5C 769.234,338.955 765.568,338.122 761.5,339C 760.065,341.267 760.398,343.267 762.5,345C 766.653,345.384 770.653,346.384 774.5,348C 781.838,355.309 780.838,361.309 771.5,366C 766.833,366.667 762.167,366.667 757.5,366C 749.711,363.669 748.878,360.169 755,355.5C 757.896,357.585 761.063,358.918 764.5,359.5C 767.576,360.051 769.576,358.884 770.5,356C 770.18,354.347 769.18,353.347 767.5,353C 760.884,352.612 755.717,349.779 752,344.5C 750.476,338.215 752.642,333.882 758.5,331.5 Z"/></g>
<g><path style="opacity:1" fill="#ee536a" d="M 795.5,335.5 C 795.435,335.938 795.601,336.272 796,336.5C 801.144,330.114 807.311,328.948 814.5,333C 816.16,334.488 817.16,336.321 817.5,338.5C 817.5,347.5 817.5,356.5 817.5,365.5C 815.167,365.5 812.833,365.5 810.5,365.5C 810.666,357.16 810.5,348.827 810,340.5C 809.184,339.177 808.017,338.511 806.5,338.5C 801.762,337.925 798.095,339.592 795.5,343.5C 794.508,350.648 794.175,357.981 794.5,365.5C 792.167,365.5 789.833,365.5 787.5,365.5C 787.5,349.5 787.5,333.5 787.5,317.5C 789.833,317.5 792.167,317.5 794.5,317.5C 794.177,323.69 794.51,329.69 795.5,335.5 Z"/></g>
<g><path style="opacity:1" fill="#e75c6f" d="M 930.5,316.5 C 933.167,316.5 935.833,316.5 938.5,316.5C 938.83,333.009 938.496,349.342 937.5,365.5C 937.5,349.5 937.5,333.5 937.5,317.5C 935.5,317.5 933.5,317.5 931.5,317.5C 931.5,323.833 931.5,330.167 931.5,336.5C 928.979,336.56 926.646,335.894 924.5,334.5C 916.765,335.808 917.098,336.641 925.5,337C 926.981,337.98 928.315,339.147 929.5,340.5C 930.663,345.802 930.829,351.136 930,356.5C 929.184,357.823 928.017,358.489 926.5,358.5C 926.389,359.117 926.056,359.617 925.5,360C 921.452,360.434 917.452,360.434 913.5,360C 916.638,361.244 919.972,361.911 923.5,362C 920.211,362.882 916.877,363.548 913.5,364C 917.211,364.825 920.878,364.659 924.5,363.5C 926.512,361.659 928.845,360.659 931.5,360.5C 931.5,362.167 931.5,363.833 931.5,365.5C 930.833,364.5 930.167,363.5 929.5,362.5C 914.282,370.718 905.949,366.052 904.5,348.5C 904.452,338.22 909.452,332.22 919.5,330.5C 922.89,331.03 925.89,332.363 928.5,334.5C 928.56,335.043 928.893,335.376 929.5,335.5C 930.496,329.202 930.83,322.868 930.5,316.5 Z"/></g>
<g><path style="opacity:1" fill="#d26575" d="M 342.5,331.5 C 345.5,331.5 348.5,331.5 351.5,331.5C 351.5,343.167 351.5,354.833 351.5,366.5C 348.5,366.5 345.5,366.5 342.5,366.5C 342.5,354.833 342.5,343.167 342.5,331.5 Z"/></g>
<g><path style="opacity:1" fill="#ef5269" d="M 343.5,332.5 C 345.833,332.5 348.167,332.5 350.5,332.5C 350.5,343.5 350.5,354.5 350.5,365.5C 348.167,365.5 345.833,365.5 343.5,365.5C 343.5,354.5 343.5,343.5 343.5,332.5 Z"/></g>
<g><path style="opacity:1" fill="#ef5269" d="M 407.5,362.5 C 406.604,352.532 406.271,342.532 406.5,332.5C 408.5,332.5 410.5,332.5 412.5,332.5C 412.334,341.173 412.5,349.84 413,358.5C 416.656,359.969 420.489,360.969 424.5,361.5C 422.3,363.546 419.633,364.546 416.5,364.5C 413.232,364.655 410.232,363.989 407.5,362.5 Z"/></g>
<g><path style="opacity:1" fill="#ee5269" d="M 428.5,361.5 C 427.859,360.518 427.193,359.518 426.5,358.5C 427.246,357.264 427.579,355.93 427.5,354.5C 427.5,353.833 427.5,353.167 427.5,352.5C 428.491,346.021 428.824,339.354 428.5,332.5C 430.833,332.5 433.167,332.5 435.5,332.5C 435.5,343.5 435.5,354.5 435.5,365.5C 433.167,365.5 430.833,365.5 428.5,365.5C 428.5,364.167 428.5,362.833 428.5,361.5 Z"/></g>
<g><path style="opacity:1" fill="#ce6776" d="M 427.5,361.5 C 427.833,361.5 428.167,361.5 428.5,361.5C 428.5,362.833 428.5,364.167 428.5,365.5C 430.833,365.5 433.167,365.5 435.5,365.5C 435.5,354.5 435.5,343.5 435.5,332.5C 433.167,332.5 430.833,332.5 428.5,332.5C 428.824,339.354 428.491,346.021 427.5,352.5C 427.5,345.5 427.5,338.5 427.5,331.5C 430.5,331.5 433.5,331.5 436.5,331.5C 436.5,343.167 436.5,354.833 436.5,366.5C 433.5,366.5 430.5,366.5 427.5,366.5C 427.5,364.833 427.5,363.167 427.5,361.5 Z"/></g>
<g><path style="opacity:1" fill="#d56a79" d="M 644.5,357.5 C 643.504,344.344 643.171,331.01 643.5,317.5C 641.167,317.5 638.833,317.5 636.5,317.5C 636.214,332.869 636.547,348.202 637.5,363.5C 636.778,363.082 636.278,362.416 636,361.5C 635.5,346.504 635.333,331.504 635.5,316.5C 638.5,316.5 641.5,316.5 644.5,316.5C 644.5,330.167 644.5,343.833 644.5,357.5 Z"/></g>
<g><path style="opacity:1" fill="#ea586d" d="M 858.5,340.5 C 858.5,343.5 858.5,346.5 858.5,349.5C 850.833,349.5 843.167,349.5 835.5,349.5C 835.205,351.735 835.539,353.735 836.5,355.5C 839.293,359.171 842.96,360.338 847.5,359C 849.394,357.596 851.394,356.43 853.5,355.5C 855.575,356.074 857.242,357.241 858.5,359C 855.354,365.004 850.354,367.504 843.5,366.5C 835.102,366.615 829.602,362.615 827,354.5C 824.936,345.69 827.436,338.523 834.5,333C 840.053,331.43 845.719,331.097 851.5,332C 855.143,333.805 857.476,336.638 858.5,340.5 Z"/></g>
<g><path style="opacity:1" fill="#ec586d" d="M 616.5,353.5 C 617.491,346.687 617.825,339.687 617.5,332.5C 619.833,332.5 622.167,332.5 624.5,332.5C 624.5,343.5 624.5,354.5 624.5,365.5C 622.167,365.5 619.833,365.5 617.5,365.5C 617.768,363.901 617.434,362.568 616.5,361.5C 614.754,363.252 612.754,364.585 610.5,365.5C 606.833,365.5 603.167,365.5 599.5,365.5C 597.496,364.327 595.996,362.66 595,360.5C 594.5,350.839 594.334,341.172 594.5,331.5C 597.5,331.5 600.5,331.5 603.5,331.5C 603.334,340.173 603.5,348.84 604,357.5C 609.713,361.04 613.88,359.706 616.5,353.5 Z"/></g>
<g><path style="opacity:1" fill="#d06575" d="M 616.5,361.5 C 617.434,362.568 617.768,363.901 617.5,365.5C 619.833,365.5 622.167,365.5 624.5,365.5C 624.5,354.5 624.5,343.5 624.5,332.5C 622.167,332.5 619.833,332.5 617.5,332.5C 617.825,339.687 617.491,346.687 616.5,353.5C 616.5,346.167 616.5,338.833 616.5,331.5C 619.5,331.5 622.5,331.5 625.5,331.5C 625.5,343.167 625.5,354.833 625.5,366.5C 622.5,366.5 619.5,366.5 616.5,366.5C 616.5,364.833 616.5,363.167 616.5,361.5 Z"/></g>
<g><path style="opacity:1" fill="#e16576" d="M 875.5,332.5 C 874.207,334.296 872.707,335.963 871,337.5C 870.333,338.5 870.333,339.5 871,340.5C 871.667,339.167 872.667,338.167 874,337.5C 878.957,336.186 884.124,336.186 889.5,337.5C 889.5,338.5 889.5,339.5 889.5,340.5C 886.141,338.513 882.475,338.013 878.5,339C 876.393,340.264 875.393,342.097 875.5,344.5C 880.167,344.5 884.833,344.5 889.5,344.5C 884.695,345.487 879.695,345.821 874.5,345.5C 874.662,343.473 874.495,341.473 874,339.5C 872.509,341.004 870.676,341.837 868.5,342C 866.571,345.256 866.071,348.756 867,352.5C 867.941,355.154 868.774,357.821 869.5,360.5C 864.772,353.625 864.272,346.292 868,338.5C 870.106,335.882 872.606,333.882 875.5,332.5 Z"/></g>
<g><path style="opacity:1" fill="#fef8fa" d="M 377.5,338.5 C 382.423,337.871 385.589,339.871 387,344.5C 388.358,350.031 387.191,354.865 383.5,359C 377.298,360.82 373.465,358.653 372,352.5C 370.015,346.04 371.848,341.373 377.5,338.5 Z"/></g>
<g><path style="opacity:1" fill="#fef8fa" d="M 523.5,338.5 C 533.093,339.106 536.26,344.106 533,353.5C 530.567,359.448 526.4,360.948 520.5,358C 517.778,353.52 516.945,348.687 518,343.5C 519.107,340.887 520.94,339.22 523.5,338.5 Z"/></g>
<g><path style="opacity:1" fill="#fef9fb" d="M 574.5,342.5 C 574.879,347.297 574.379,351.964 573,356.5C 568.291,360.769 563.958,360.436 560,355.5C 559.333,351.167 559.333,346.833 560,342.5C 564.753,337.311 569.587,337.311 574.5,342.5 Z"/></g>
<g><path style="opacity:1" fill="#fdf5f9" d="M 839.5,338.5 C 842.518,338.335 845.518,338.502 848.5,339C 850.155,340.444 850.822,342.278 850.5,344.5C 845.833,344.5 841.167,344.5 836.5,344.5C 836.615,342.053 837.615,340.053 839.5,338.5 Z"/></g>
<g><path style="opacity:1" fill="#fef7f9" d="M 926.5,358.5 C 920.113,361.181 915.947,359.181 914,352.5C 912.084,343.441 915.584,338.941 924.5,339C 926.286,339.785 927.786,340.951 929,342.5C 930.249,348.282 929.415,353.615 926.5,358.5 Z"/></g>
<g><path style="opacity:1" fill="#ec556b" d="M 673.5,319.5 C 680.841,319.334 688.174,319.5 695.5,320C 706.07,323.029 708.904,329.529 704,339.5C 701.92,341.123 699.754,342.623 697.5,344C 700,345.167 701.833,347 703,349.5C 704.81,354.429 706.31,359.429 707.5,364.5C 705.052,365.473 702.385,365.806 699.5,365.5C 698.185,361.241 697.018,356.907 696,352.5C 695.583,351.244 694.75,350.577 693.5,350.5C 692.738,348.738 691.404,347.738 689.5,347.5C 687.052,346.527 684.385,346.194 681.5,346.5C 681.5,352.833 681.5,359.167 681.5,365.5C 678.833,365.5 676.167,365.5 673.5,365.5C 673.5,350.167 673.5,334.833 673.5,319.5 Z"/></g>
<g><path style="opacity:1" fill="#fef9fb" d="M 692.5,327.5 C 697.577,329.334 698.744,332.667 696,337.5C 695.25,338.126 694.416,338.626 693.5,339C 689.848,339.499 686.182,339.665 682.5,339.5C 682.5,335.5 682.5,331.5 682.5,327.5C 685.833,327.5 689.167,327.5 692.5,327.5 Z"/></g>
<g><path style="opacity:1" fill="#f8aab5" d="M 692.5,327.5 C 689.167,327.5 685.833,327.5 682.5,327.5C 682.5,331.5 682.5,335.5 682.5,339.5C 681.515,335.366 681.182,331.032 681.5,326.5C 685.371,326.185 689.038,326.518 692.5,327.5 Z"/></g>
<g><path style="opacity:1" fill="#ec566b" d="M 897.5,340.5 C 897.5,343.5 897.5,346.5 897.5,349.5C 889.981,349.175 882.648,349.508 875.5,350.5C 875.802,357.632 879.469,360.465 886.5,359C 888.394,357.596 890.394,356.43 892.5,355.5C 895.524,356.039 897.024,357.706 897,360.5C 893.424,365.309 888.59,367.309 882.5,366.5C 876.731,367.447 872.397,365.447 869.5,360.5C 868.774,357.821 867.941,355.154 867,352.5C 866.071,348.756 866.571,345.256 868.5,342C 870.676,341.837 872.509,341.004 874,339.5C 874.495,341.473 874.662,343.473 874.5,345.5C 879.695,345.821 884.695,345.487 889.5,344.5C 889.5,343.167 889.5,341.833 889.5,340.5C 889.5,339.5 889.5,338.5 889.5,337.5C 884.124,336.186 878.957,336.186 874,337.5C 872.667,338.167 871.667,339.167 871,340.5C 870.333,339.5 870.333,338.5 871,337.5C 872.707,335.963 874.207,334.296 875.5,332.5C 880.316,331.35 885.316,331.184 890.5,332C 894.143,333.805 896.476,336.638 897.5,340.5 Z"/></g>
<g><path style="opacity:1" fill="#fdf5f8" d="M 889.5,340.5 C 889.5,341.833 889.5,343.167 889.5,344.5C 884.833,344.5 880.167,344.5 875.5,344.5C 875.393,342.097 876.393,340.264 878.5,339C 882.475,338.013 886.141,338.513 889.5,340.5 Z"/></g>
<g><path style="opacity:1" fill="#ea596d" d="M 474.5,320.5 C 478.566,319.178 482.733,319.178 487,320.5C 492.475,335.757 497.641,351.091 502.5,366.5C 499.167,366.5 495.833,366.5 492.5,366.5C 491.301,362.901 490.301,359.235 489.5,355.5C 483.491,355.334 477.491,355.501 471.5,356C 470.561,359.481 469.228,362.815 467.5,366C 464.518,366.498 461.518,366.665 458.5,366.5C 463.262,350.879 468.595,335.545 474.5,320.5 Z"/></g>
<g><path style="opacity:1" fill="#fef3f6" d="M 483.5,336.5 C 484.484,339.812 485.484,343.145 486.5,346.5C 482.555,347.491 478.555,347.824 474.5,347.5C 475.63,342.112 476.963,336.778 478.5,331.5C 479.151,330.909 479.818,330.243 480.5,329.5C 481.7,331.771 482.7,334.104 483.5,336.5 Z"/></g>
<g><path style="opacity:1" fill="#ee5369" d="M 474.5,320.5 C 478.437,320.207 482.27,320.54 486,321.5C 488.067,325.639 488.734,329.973 488,334.5C 487.586,334.043 487.086,333.709 486.5,333.5C 485.859,334.993 484.859,335.993 483.5,336.5C 482.7,334.104 481.7,331.771 480.5,329.5C 479.818,330.243 479.151,330.909 478.5,331.5C 477.442,332.6 476.608,333.934 476,335.5C 475.667,334.833 475.333,334.167 475,333.5C 473.951,334.517 472.784,334.684 471.5,334C 472.596,329.541 473.596,325.041 474.5,320.5 Z"/></g>
<g><path style="opacity:1" fill="#d66c7b" d="M 806.5,338.5 C 808.017,338.511 809.184,339.177 810,340.5C 810.5,348.827 810.666,357.16 810.5,365.5C 812.833,365.5 815.167,365.5 817.5,365.5C 817.5,356.5 817.5,347.5 817.5,338.5C 818.494,347.652 818.827,356.985 818.5,366.5C 815.5,366.5 812.5,366.5 809.5,366.5C 809.666,358.16 809.5,349.827 809,341.5C 807.955,340.627 807.122,339.627 806.5,338.5 Z"/></g>
<g><path style="opacity:1" fill="#f6acb7" d="M 689.5,347.5 C 687.167,347.5 684.833,347.5 682.5,347.5C 682.823,354.022 682.49,360.355 681.5,366.5C 681.5,366.167 681.5,365.833 681.5,365.5C 681.5,359.167 681.5,352.833 681.5,346.5C 684.385,346.194 687.052,346.527 689.5,347.5 Z"/></g>
<g><path style="opacity:1" fill="#e98e9b" d="M 551.5,339.5 C 550.746,344.463 550.413,349.463 550.5,354.5C 549.838,352.696 549.505,350.696 549.5,348.5C 549.343,345.186 550.009,342.186 551.5,339.5 Z"/></g>
<g><path style="opacity:1" fill="#cd6d7b" d="M 858.5,340.5 C 859.479,343.625 859.813,346.958 859.5,350.5C 851.833,350.5 844.167,350.5 836.5,350.5C 836.5,352.167 836.5,353.833 836.5,355.5C 835.539,353.735 835.205,351.735 835.5,349.5C 843.167,349.5 850.833,349.5 858.5,349.5C 858.5,346.5 858.5,343.5 858.5,340.5 Z"/></g>
<g><path style="opacity:1" fill="#c66b78" d="M 897.5,340.5 C 898.479,343.625 898.813,346.958 898.5,350.5C 890.833,350.5 883.167,350.5 875.5,350.5C 882.648,349.508 889.981,349.175 897.5,349.5C 897.5,346.5 897.5,343.5 897.5,340.5 Z"/></g>
<g><path style="opacity:1" fill="#d16e7c" d="M 331.5,336.5 C 332.222,336.918 332.722,337.584 333,338.5C 333.5,347.827 333.666,357.161 333.5,366.5C 330.5,366.5 327.5,366.5 324.5,366.5C 324.5,358.5 324.5,350.5 324.5,342.5C 325.492,349.982 325.825,357.648 325.5,365.5C 327.833,365.5 330.167,365.5 332.5,365.5C 332.725,355.801 332.392,346.134 331.5,336.5 Z"/></g>
<g><path style="opacity:1" fill="#fef4f7" d="M 731.5,349.5 C 732.833,349.5 734.167,349.5 735.5,349.5C 735.505,357.677 731.672,360.677 724,358.5C 723.192,356.421 723.359,354.421 724.5,352.5C 727.016,351.67 729.35,350.67 731.5,349.5 Z"/></g>
<g><path style="opacity:1" fill="#cb7481" d="M 673.5,319.5 C 673.5,334.833 673.5,350.167 673.5,365.5C 676.167,365.5 678.833,365.5 681.5,365.5C 681.5,365.833 681.5,366.167 681.5,366.5C 678.5,366.5 675.5,366.5 672.5,366.5C 672.17,350.658 672.504,334.991 673.5,319.5 Z"/></g>
<g><path style="opacity:1" fill="#d16f7d" d="M 517.5,335.5 C 516.51,329.69 516.177,323.69 516.5,317.5C 514.167,317.5 511.833,317.5 509.5,317.5C 509.5,333.5 509.5,349.5 509.5,365.5C 512.167,365.5 514.833,365.5 517.5,365.5C 514.713,366.477 511.713,366.81 508.5,366.5C 508.5,349.833 508.5,333.167 508.5,316.5C 511.5,316.5 514.5,316.5 517.5,316.5C 517.5,322.833 517.5,329.167 517.5,335.5 Z"/></g>
<g><path style="opacity:1" fill="#ef5269" d="M 937.5,365.5 C 935.5,365.5 933.5,365.5 931.5,365.5C 931.5,363.833 931.5,362.167 931.5,360.5C 928.845,360.659 926.512,361.659 924.5,363.5C 920.878,364.659 917.211,364.825 913.5,364C 916.877,363.548 920.211,362.882 923.5,362C 919.972,361.911 916.638,361.244 913.5,360C 917.452,360.434 921.452,360.434 925.5,360C 926.056,359.617 926.389,359.117 926.5,358.5C 928.017,358.489 929.184,357.823 930,356.5C 930.829,351.136 930.663,345.802 929.5,340.5C 928.315,339.147 926.981,337.98 925.5,337C 917.098,336.641 916.765,335.808 924.5,334.5C 926.646,335.894 928.979,336.56 931.5,336.5C 931.5,330.167 931.5,323.833 931.5,317.5C 933.5,317.5 935.5,317.5 937.5,317.5C 937.5,333.5 937.5,349.5 937.5,365.5 Z"/></g>
<g><path style="opacity:1" fill="#e26777" d="M 395.5,340.5 C 396.65,345.316 396.816,350.316 396,355.5C 393.019,365.473 386.519,368.973 376.5,366C 375.058,365.623 374.058,364.79 373.5,363.5C 377.972,365.216 382.638,365.882 387.5,365.5C 387.343,364.127 387.51,362.793 388,361.5C 388.718,362.451 389.551,362.617 390.5,362C 389.289,361.107 389.289,360.274 390.5,359.5C 391.086,359.709 391.586,360.043 392,360.5C 393,358.5 394,356.5 395,354.5C 395.499,349.845 395.666,345.179 395.5,340.5 Z"/></g>
<g><path style="opacity:1" fill="#d76b79" d="M 693.5,350.5 C 694.75,350.577 695.583,351.244 696,352.5C 697.018,356.907 698.185,361.241 699.5,365.5C 702.385,365.806 705.052,365.473 707.5,364.5C 708.043,364.56 708.376,364.893 708.5,365.5C 705.232,366.487 701.898,366.82 698.5,366.5C 696.831,361.146 695.165,355.812 693.5,350.5 Z"/></g>
<g><path style="opacity:1" fill="#de7a88" d="M 287.5,363.5 C 286.942,364.79 285.942,365.623 284.5,366C 277.502,368.286 270.835,367.786 264.5,364.5C 272.281,366.11 279.948,365.777 287.5,363.5 Z"/></g>
<g><path style="opacity:1" fill="#de7886" d="M 519.5,363.5 C 523.972,365.216 528.638,365.882 533.5,365.5C 530.091,367.96 526.425,368.126 522.5,366C 521.058,365.623 520.058,364.79 519.5,363.5 Z"/></g>
<g><path style="opacity:1" fill="#de7a87" d="M 599.5,365.5 C 603.167,365.5 606.833,365.5 610.5,365.5C 606.865,368.065 603.199,368.065 599.5,365.5 Z"/></g>
<g><path style="opacity:1" fill="#214275" d="M 790.5,384.5 C 795.328,384.385 796.661,386.552 794.5,391C 789.57,391.427 788.237,389.26 790.5,384.5 Z"/></g>
<g><path style="opacity:1" fill="#22406b" d="M 883.5,391.5 C 887.634,390.515 891.968,390.182 896.5,390.5C 896.5,389.5 896.5,388.5 896.5,387.5C 890.5,387.5 884.5,387.5 878.5,387.5C 878.5,396.833 878.5,406.167 878.5,415.5C 884.5,415.5 890.5,415.5 896.5,415.5C 896.5,414.5 896.5,413.5 896.5,412.5C 891.968,412.818 887.634,412.485 883.5,411.5C 888.167,411.5 892.833,411.5 897.5,411.5C 897.5,413.167 897.5,414.833 897.5,416.5C 890.833,416.5 884.167,416.5 877.5,416.5C 877.5,406.5 877.5,396.5 877.5,386.5C 884.167,386.5 890.833,386.5 897.5,386.5C 897.5,388.167 897.5,389.833 897.5,391.5C 892.833,391.5 888.167,391.5 883.5,391.5 Z"/></g>
<g><path style="opacity:1" fill="#37557c" d="M 807.5,410.5 C 806.507,402.35 806.174,394.017 806.5,385.5C 805.167,385.5 803.833,385.5 802.5,385.5C 802.5,394.5 802.5,403.5 802.5,412.5C 801.506,403.348 801.173,394.015 801.5,384.5C 803.5,384.5 805.5,384.5 807.5,384.5C 807.5,393.167 807.5,401.833 807.5,410.5 Z"/></g>
<g><path style="opacity:1" fill="#1b3f74" d="M 594.5,399.5 C 594.013,398.527 593.513,397.527 593,396.5C 592.5,403.158 592.334,409.825 592.5,416.5C 590.833,416.5 589.167,416.5 587.5,416.5C 587.5,406.5 587.5,396.5 587.5,386.5C 590.247,386.187 592.914,386.52 595.5,387.5C 597.901,394.538 600.401,401.538 603,408.5C 605.204,401.386 607.704,394.386 610.5,387.5C 613.086,386.52 615.753,386.187 618.5,386.5C 618.5,396.5 618.5,406.5 618.5,416.5C 616.5,416.5 614.5,416.5 612.5,416.5C 612.666,410.158 612.5,403.825 612,397.5C 609.526,403.757 607.359,410.09 605.5,416.5C 603.533,416.739 601.699,416.406 600,415.5C 598.258,410.106 596.424,404.773 594.5,399.5 Z"/></g>
<g><path style="opacity:1" fill="#143c75" d="M 883.5,391.5 C 883.5,393.833 883.5,396.167 883.5,398.5C 887.5,398.5 891.5,398.5 895.5,398.5C 895.5,400.167 895.5,401.833 895.5,403.5C 891.5,403.5 887.5,403.5 883.5,403.5C 883.5,406.167 883.5,408.833 883.5,411.5C 887.634,412.485 891.968,412.818 896.5,412.5C 896.5,413.5 896.5,414.5 896.5,415.5C 890.5,415.5 884.5,415.5 878.5,415.5C 878.5,406.167 878.5,396.833 878.5,387.5C 884.5,387.5 890.5,387.5 896.5,387.5C 896.5,388.5 896.5,389.5 896.5,390.5C 891.968,390.182 887.634,390.515 883.5,391.5 Z"/></g>
<g><path style="opacity:1" fill="#334f76" d="M 790.5,393.5 C 790.5,400.833 790.5,408.167 790.5,415.5C 791.833,415.5 793.167,415.5 794.5,415.5C 794.5,408.167 794.5,400.833 794.5,393.5C 795.492,400.982 795.825,408.648 795.5,416.5C 793.5,416.5 791.5,416.5 789.5,416.5C 789.175,408.648 789.508,400.982 790.5,393.5 Z"/></g>
<g><path style="opacity:1" fill="#204278" d="M 763.5,384.5 C 765.5,384.5 767.5,384.5 769.5,384.5C 769.334,388.514 769.501,392.514 770,396.5C 775.441,392.074 780.108,392.741 784,398.5C 784.499,404.491 784.666,410.491 784.5,416.5C 782.5,416.5 780.5,416.5 778.5,416.5C 778.666,410.824 778.499,405.157 778,399.5C 775.084,397.987 772.418,398.32 770,400.5C 769.501,405.823 769.334,411.156 769.5,416.5C 767.5,416.5 765.5,416.5 763.5,416.5C 763.5,405.833 763.5,395.167 763.5,384.5 Z"/></g>
<g><path style="opacity:1" fill="#0e3a76" d="M 790.5,393.5 C 791.833,393.5 793.167,393.5 794.5,393.5C 794.5,400.833 794.5,408.167 794.5,415.5C 793.167,415.5 791.833,415.5 790.5,415.5C 790.5,408.167 790.5,400.833 790.5,393.5 Z"/></g>
<g><path style="opacity:1" fill="#163d74" d="M 837.5,386.5 C 843.621,386.09 849.621,386.59 855.5,388C 859.41,391.925 859.41,395.925 855.5,400C 860.738,403.274 861.904,407.774 859,413.5C 858.097,414.701 856.931,415.535 855.5,416C 849.509,416.499 843.509,416.666 837.5,416.5C 837.5,406.5 837.5,396.5 837.5,386.5 Z"/></g>
<g><path style="opacity:1" fill="#f4fafc" d="M 843.5,391.5 C 846.187,391.336 848.854,391.503 851.5,392C 854.167,394 854.167,396 851.5,398C 848.854,398.497 846.187,398.664 843.5,398.5C 843.5,396.167 843.5,393.833 843.5,391.5 Z"/></g>
<g><path style="opacity:1" fill="#123b73" d="M 807.5,410.5 C 808.209,411.404 809.209,411.737 810.5,411.5C 810.5,413.167 810.5,414.833 810.5,416.5C 808.473,416.662 806.473,416.495 804.5,416C 803.177,415.184 802.511,414.017 802.5,412.5C 802.5,403.5 802.5,394.5 802.5,385.5C 803.833,385.5 805.167,385.5 806.5,385.5C 806.174,394.017 806.507,402.35 807.5,410.5 Z"/></g>
<g><path style="opacity:1" fill="#1a3f74" d="M 642.5,386.5 C 645.5,386.5 648.5,386.5 651.5,386.5C 654.531,396.426 657.864,406.26 661.5,416C 659.19,416.497 656.857,416.663 654.5,416.5C 654.326,414.139 653.993,411.806 653.5,409.5C 649.167,409.5 644.833,409.5 640.5,409.5C 640.326,411.861 639.993,414.194 639.5,416.5C 637.5,416.5 635.5,416.5 633.5,416.5C 636.494,406.517 639.494,396.517 642.5,386.5 Z"/></g>
<g><path style="opacity:1" fill="#f0f8fb" d="M 646.5,392.5 C 648.806,396.085 650.139,400.085 650.5,404.5C 648.167,404.5 645.833,404.5 643.5,404.5C 644.09,400.397 645.09,396.397 646.5,392.5 Z"/></g>
<g><path style="opacity:1" fill="#103b76" d="M 751.5,387.5 C 754.561,387.444 756.728,388.778 758,391.5C 758.667,394.5 758.667,397.5 758,400.5C 757.578,402.426 756.411,403.426 754.5,403.5C 750.167,403.5 745.833,403.5 741.5,403.5C 740.461,407.206 740.461,410.873 741.5,414.5C 740.5,414.5 739.5,414.5 738.5,414.5C 738.5,406.833 738.5,399.167 738.5,391.5C 741.205,391.38 741.872,392.38 740.5,394.5C 741.862,396.427 742.862,398.427 743.5,400.5C 751.928,403.517 755.428,400.517 754,391.5C 748.93,390.206 743.764,389.206 738.5,388.5C 742.783,387.508 747.116,387.174 751.5,387.5 Z"/></g>
<g><path style="opacity:1" fill="#a5bedf" d="M 594.5,399.5 C 593.833,405.167 593.167,410.833 592.5,416.5C 592.334,409.825 592.5,403.158 593,396.5C 593.513,397.527 594.013,398.527 594.5,399.5 Z"/></g>
<g><path style="opacity:1" fill="#234373" d="M 751.5,387.5 C 747.116,387.174 742.783,387.508 738.5,388.5C 743.764,389.206 748.93,390.206 754,391.5C 755.428,400.517 751.928,403.517 743.5,400.5C 742.862,398.427 741.862,396.427 740.5,394.5C 741.872,392.38 741.205,391.38 738.5,391.5C 738.5,399.167 738.5,406.833 738.5,414.5C 739.5,414.5 740.5,414.5 741.5,414.5C 740.461,410.873 740.461,407.206 741.5,403.5C 745.833,403.5 750.167,403.5 754.5,403.5C 751.155,405.217 747.489,405.884 743.5,405.5C 743.5,409.167 743.5,412.833 743.5,416.5C 741.5,416.5 739.5,416.5 737.5,416.5C 737.5,406.5 737.5,396.5 737.5,386.5C 742.363,386.181 747.03,386.514 751.5,387.5 Z"/></g>
<g><path style="opacity:1" fill="#f7fcfd" d="M 743.5,400.5 C 743.5,397.5 743.5,394.5 743.5,391.5C 751.328,389.412 753.995,392.079 751.5,399.5C 748.916,400.393 746.249,400.726 743.5,400.5 Z"/></g>
<g><path style="opacity:1" fill="#f7fcfd" d="M 843.5,403.5 C 846.85,403.335 850.183,403.502 853.5,404C 854.833,406.333 854.833,408.667 853.5,411C 850.183,411.498 846.85,411.665 843.5,411.5C 843.5,408.833 843.5,406.167 843.5,403.5 Z"/></g>
<g><path style="opacity:1" fill="#193e73" d="M 694.5,399.5 C 694.013,398.527 693.513,397.527 693,396.5C 692.5,403.158 692.334,409.825 692.5,416.5C 690.833,416.5 689.167,416.5 687.5,416.5C 687.5,406.5 687.5,396.5 687.5,386.5C 690.247,386.187 692.914,386.52 695.5,387.5C 697.905,394.549 700.405,401.549 703,408.5C 705.204,401.386 707.704,394.386 710.5,387.5C 713.086,386.52 715.753,386.187 718.5,386.5C 718.5,396.5 718.5,406.5 718.5,416.5C 716.5,416.5 714.5,416.5 712.5,416.5C 712.666,410.158 712.5,403.825 712,397.5C 709.526,403.757 707.359,410.09 705.5,416.5C 703.533,416.739 701.699,416.406 700,415.5C 698.258,410.106 696.424,404.773 694.5,399.5 Z"/></g>
<g><path style="opacity:1" fill="#a7bedd" d="M 694.5,399.5 C 693.833,405.167 693.167,410.833 692.5,416.5C 692.334,409.825 692.5,403.158 693,396.5C 693.513,397.527 694.013,398.527 694.5,399.5 Z"/></g>
<g><path style="opacity:1" fill="#234474" d="M 725.5,409.5 C 730.328,409.385 731.661,411.552 729.5,416C 723.738,416.418 722.404,414.251 725.5,409.5 Z"/></g>
<g><path style="opacity:1" fill="#224274" d="M 815.5,409.5 C 819.49,408.824 821.157,410.49 820.5,414.5C 820.555,419.055 818.555,422.388 814.5,424.5C 813.5,424.167 812.833,423.5 812.5,422.5C 814.375,421.46 815.708,419.96 816.5,418C 815.5,416.333 814.5,414.667 813.5,413C 813.978,411.697 814.645,410.531 815.5,409.5 Z"/></g>
<g><path style="opacity:1" fill="#1a3e72" d="M 914.5,386.5 C 921.391,385.901 928.058,386.735 934.5,389C 938.792,392.087 940.458,396.254 939.5,401.5C 940.315,409.186 936.982,414.02 929.5,416C 924.511,416.499 919.511,416.666 914.5,416.5C 914.5,406.5 914.5,396.5 914.5,386.5 Z"/></g>
<g><path style="opacity:1" fill="#fbfefd" d="M 920.5,391.5 C 932.16,390.679 936.327,396.012 933,407.5C 929.613,411.039 925.447,412.372 920.5,411.5C 920.5,404.833 920.5,398.167 920.5,391.5 Z"/></g>
<g><path style="opacity:1" fill="#204174" d="M 625.5,409.5 C 630.328,409.385 631.661,411.552 629.5,416C 623.738,416.418 622.404,414.251 625.5,409.5 Z"/></g>
<g><path style="opacity:1" fill="#1d3f73" d="M 665.5,409.5 C 669.49,408.824 671.157,410.49 670.5,414.5C 670.555,419.055 668.555,422.388 664.5,424.5C 663.5,424.167 662.833,423.5 662.5,422.5C 664.375,421.46 665.708,419.96 666.5,418C 665.5,416.333 664.5,414.667 663.5,413C 663.978,411.697 664.645,410.531 665.5,409.5 Z"/></g>
<g><path style="opacity:1" fill="#224272" d="M 866.5,409.5 C 871.328,409.385 872.661,411.552 870.5,416C 864.738,416.418 863.404,414.251 866.5,409.5 Z"/></g>
<g><path style="opacity:1" fill="#204173" d="M 903.5,409.5 C 908.328,409.385 909.661,411.552 907.5,416C 901.738,416.418 900.404,414.251 903.5,409.5 Z"/></g>
<g><path style="opacity:0.07" fill="#e3e3e8" d="M 833.5,531.5 C 658.499,531.324 483.499,531.657 308.5,532.5C 307.391,531.71 306.058,531.21 304.5,531C 481,530.167 657.334,530.334 833.5,531.5 Z"/></g>
</svg>
