<svg xmlns="http://www.w3.org/2000/svg" xmlns:xlink="http://www.w3.org/1999/xlink" version="1.1" width="2345.94" height="573.687" viewBox="0 0 2345.94 573.687">
<defs>
<clipPath id="clip_0">
<path transform="matrix(1,0,0,-1,0,573.687)" d="M0 573.687H2345.94V0H0Z"/>
</clipPath>
</defs>
<g id="layer_1" data-name="Layer 1">
<g clip-path="url(#clip_0)">
<path transform="matrix(1,0,0,-1,349.216,283.47843)" d="M0 0V-5.725H7.604C12.166-5.993 14.566-9.813 14.566-11.711 14.566-13.61 14.863-175.27 14.863-178.349 14.863-182.195 17.175-191.009 0-191.009V-195.413H84.551V-189.687H75.964C73.535-189.687 70.253-187.934 69.985-183.974 66.801-136.928 69.743-1.102 69.743-1.102Z" fill="#867c7b"/>
<path transform="matrix(1,0,0,-1,169.4221,381.1845)" d="M0 0C-3.353 0-6.07-5.213-6.07-11.643-6.07-18.072-3.353-23.285 0-23.285 3.353-23.285 6.07-18.072 6.07-11.643 6.07-5.213 3.353 0 0 0M44.382 .936V-82.186C44.382-89.517 47.904-91.981 52.088-91.981H60.676V-97.707H-23.875V-93.303C-6.7-93.303-9.013-84.489-9.013-80.643-9.013-76.796-9.343 104.875-9.343 104.875 16.075 26.917 44.382 .936 44.382 .936" fill="#867c7b"/>
<path transform="matrix(1,0,0,-1,193.8771,131.33191)" d="M0 0C0 0-52.514-59.119 10.569-173.725 59.119-256.623 134.752-348.439 251.009-362.972 239.779-366.936 141.687-377.504 43.597-271.155-54.495-164.808-50.862-33.358 0 0" fill="#184a91"/>
<path transform="matrix(1,0,0,-1,248.7033,269.88273)" d="M0 0C0-20.521-11.238-37.155-25.102-37.155-38.964-37.155-50.202-20.521-50.202 0-50.202 20.521-38.964 37.156-25.102 37.156-11.238 37.156 0 20.521 0 0" fill="#184a91"/>
<path transform="matrix(1,0,0,-1,211.0519,168.9833)" d="M0 0C0 0 50.047 30.432 88.22-1.981 126.394-34.396 127.485-76.954 127.485-76.954 127.485-76.954 145.03-32.039 95.133 5.614 57.932 33.688 11.56 13.211 0 0" fill="#184a91"/>
<path transform="matrix(1,0,0,-1,203.7853,146.59851)" d="M0 0C0 0 59.226 44.297 113.945-8.844 164.277-57.725 163.816-106.936 163.816-106.936 163.816-106.936 180.097-48.146 122.862 1.436 81.335 37.411 30.056 28.659 0 0" fill="#184a91"/>
<path transform="matrix(1,0,0,-1,200.4826,125.71771)" d="M0 0C0 0 68.367 54.165 138.589-5.614 173.725-39.963 193.638-71.21 204.11-132.109 205.431-113.284 206.87-37.126 142.64 11.062 79.693 57.798 13.541 20.147 0 0" fill="#184a91"/>
<path transform="matrix(1,0,0,-1,200.592,88.603427)" d="M0 0-2.114 2.377-3.53 4.671-1.571 5.88-.155 3.586 1.032 .637ZM-3.163-1.953-5.287 .418-6.703 2.712-4.743 3.921-3.328 1.628-2.112-1.304Z" fill="#231f20"/>
<path transform="matrix(1,0,0,-1,215.2248,92.61612)" d="M0 0-6.537 12.966-11.381 10.524-12.255 12.259-.603 18.134 .272 16.398-4.592 13.947 1.945 .98Z" fill="#231f20"/>
<path transform="matrix(1,0,0,-1,225.5139,87.664)" d="M0 0-5.768 15.421-3.727 16.185-1.358 9.852 6.657 12.85 4.289 19.183 6.329 19.945 12.097 4.525 10.057 3.762 7.338 11.03-.678 8.032 2.041 .764Z" fill="#231f20"/>
<path transform="matrix(1,0,0,-1,242.5031,81.65811)" d="M0 0-3.898 15.996 7.667 18.815 8.127 16.928-1.322 14.624-.128 9.726 8.721 11.882 9.179 10.006 .329 7.849 1.656 2.404 11.477 4.798 11.937 2.91Z" fill="#231f20"/>
<path transform="matrix(1,0,0,-1,266.7365,76.996)" d="M0 0-1.029 16.432 1.145 16.567 2.053 2.075 10.146 2.582 10.267 .643Z" fill="#231f20"/>
<path transform="matrix(1,0,0,-1,292.8967,60.593629)" d="M0 0 2.174-.146 1.534-9.637C1.423-11.288 1.148-12.586 .709-13.532 .271-14.479-.457-15.223-1.473-15.766-2.489-16.309-3.789-16.527-5.372-16.42-6.911-16.316-8.152-15.967-9.095-15.37-10.038-14.774-10.685-13.96-11.035-12.927-11.386-11.894-11.502-10.507-11.385-8.767L-10.745 .725-8.571 .578-9.21-8.901C-9.307-10.328-9.245-11.389-9.025-12.083-8.806-12.776-8.385-13.328-7.764-13.738-7.142-14.147-6.364-14.384-5.431-14.446-3.832-14.555-2.668-14.269-1.939-13.59-1.211-12.911-.777-11.541-.639-9.48Z" fill="#231f20"/>
<path transform="matrix(1,0,0,-1,298.7775,77.7616)" d="M0 0 3.682 16.047 6.878 15.313 8.069 3.08C8.177 1.941 8.25 1.091 8.29 .528 8.606 1.07 9.088 1.862 9.734 2.905L16.139 13.188 18.995 12.533 15.313-3.514 13.267-3.044 16.348 10.387 8.604-1.975 6.687-1.535 5.182 13.19 2.047-.47Z" fill="#231f20"/>
<path transform="matrix(1,0,0,-1,319.1115,83.14932)" d="M0 0 5.505 15.517 7.559 14.788 2.054-.729Z" fill="#231f20"/>
<path transform="matrix(1,0,0,-1,326.2092,85.67081)" d="M0 0 7.035 14.885 9.056 13.93 11.351-1.452 16.874 10.234 18.763 9.342 11.728-5.543 9.707-4.588 7.417 10.804 1.889-.893Z" fill="#231f20"/>
<path transform="matrix(1,0,0,-1,348.0275,87.79382)" d="M0 0C-1.077-1.666-1.478-3.268-1.202-4.806-.926-6.344-.112-7.55 1.239-8.424 2.616-9.314 4.062-9.563 5.578-9.17 7.094-8.777 8.427-7.691 9.578-5.912 10.306-4.787 10.75-3.682 10.913-2.596 11.075-1.511 10.939-.5 10.506 .436 10.072 1.371 9.399 2.134 8.488 2.724 7.192 3.561 5.791 3.837 4.282 3.551 2.773 3.265 1.346 2.081 0 0M-1.867 1.248C-.384 3.543 1.394 4.941 3.466 5.442 5.537 5.944 7.548 5.564 9.497 4.305 10.773 3.479 11.727 2.43 12.357 1.157 12.987-.115 13.219-1.471 13.051-2.909 12.883-4.347 12.353-5.758 11.458-7.141 10.551-8.543 9.457-9.614 8.176-10.355 6.895-11.096 5.551-11.415 4.146-11.313 2.74-11.212 1.437-10.772 .236-9.996-1.064-9.154-2.024-8.088-2.643-6.797-3.261-5.505-3.482-4.145-3.308-2.716-3.132-1.286-2.652 .035-1.867 1.248" fill="#231f20"/>
<path transform="matrix(1,0,0,-1,377.2482,98.872928)" d="M0 0 1.659-1.412-4.505-8.656C-5.577-9.917-6.571-10.796-7.487-11.295-8.403-11.794-9.431-11.959-10.57-11.79-11.71-11.622-12.884-11.023-14.093-9.995-15.268-8.995-16.057-7.976-16.459-6.936-16.861-5.895-16.896-4.855-16.562-3.816-16.229-2.778-15.498-1.595-14.367-.266L-8.203 6.979-6.544 5.567-12.7-1.669C-13.627-2.758-14.209-3.646-14.445-4.335-14.683-5.023-14.673-5.717-14.417-6.416-14.162-7.115-13.678-7.768-12.965-8.374-11.744-9.412-10.64-9.876-9.65-9.765-8.661-9.652-7.496-8.81-6.157-7.236Z" fill="#231f20"/>
<path transform="matrix(1,0,0,-1,375.2414,112.222629)" d="M0 0 1.526-1.389C.986-2.019 .644-2.644 .497-3.263 .351-3.882 .411-4.577 .68-5.348 .948-6.119 1.399-6.849 2.034-7.536 2.598-8.147 3.187-8.603 3.799-8.902 4.412-9.203 4.982-9.321 5.51-9.258 6.036-9.194 6.487-8.989 6.861-8.645 7.241-8.294 7.471-7.878 7.552-7.396 7.632-6.915 7.534-6.332 7.26-5.648 7.087-5.207 6.621-4.307 5.862-2.949 5.104-1.592 4.637-.581 4.462 .083 4.231 .94 4.21 1.717 4.396 2.414 4.583 3.111 4.955 3.717 5.511 4.229 6.121 4.793 6.853 5.146 7.703 5.29 8.554 5.434 9.424 5.299 10.313 4.887 11.203 4.476 12.023 3.862 12.775 3.048 13.603 2.15 14.188 1.227 14.531 .275 14.875-.677 14.936-1.596 14.715-2.482 14.493-3.369 14.041-4.153 13.356-4.836L11.824-3.407C12.513-2.619 12.833-1.807 12.784-.971 12.736-.134 12.282 .749 11.425 1.68 10.531 2.647 9.702 3.189 8.938 3.305 8.175 3.421 7.543 3.247 7.042 2.785 6.607 2.384 6.395 1.897 6.403 1.324 6.407 .758 6.862-.312 7.769-1.886 8.675-3.458 9.241-4.589 9.469-5.275 9.794-6.279 9.862-7.179 9.674-7.975 9.485-8.77 9.067-9.467 8.418-10.065 7.774-10.66 6.997-11.035 6.088-11.192 5.178-11.349 4.246-11.229 3.293-10.829 2.339-10.431 1.464-9.8 .667-8.936-.344-7.841-1.031-6.776-1.395-5.741-1.759-4.707-1.814-3.684-1.562-2.671-1.309-1.659-.788-.769 0 0" fill="#231f20"/>
<path transform="matrix(1,0,0,-1,387.9162,135.33002)" d="M0 0 13.782 9.007 15.005 7.136 8.915-7.174 19.735-.103 20.878-1.852 7.097-10.858 5.874-8.987 11.973 5.329 1.144-1.749Z" fill="#231f20"/>
<path transform="matrix(1,0,0,-1,397.7209,151.1347)" d="M0 0 14.448 7.894 15.493 5.981 1.045-1.912Z" fill="#231f20"/>
<path transform="matrix(1,0,0,-1,411.4816,166.1474)" d="M0 0 .399-2.211C-1.419-2.534-3.002-2.35-4.347-1.657-5.693-.964-6.72 .163-7.428 1.725-8.161 3.341-8.428 4.804-8.229 6.115-8.03 7.426-7.427 8.629-6.418 9.723-5.41 10.817-4.19 11.688-2.758 12.338-1.196 13.046 .301 13.365 1.733 13.296 3.167 13.227 4.435 12.778 5.538 11.95 6.641 11.123 7.492 10.048 8.092 8.725 8.771 7.225 8.962 5.79 8.662 4.421 8.362 3.052 7.611 1.853 6.409 .822L5.063 2.567C5.997 3.41 6.562 4.274 6.761 5.162 6.958 6.049 6.83 6.993 6.375 7.996 5.853 9.148 5.14 9.986 4.236 10.51 3.333 11.033 2.345 11.241 1.272 11.132 .199 11.024-.832 10.745-1.82 10.297-3.096 9.719-4.124 9.028-4.907 8.226-5.689 7.423-6.139 6.522-6.253 5.524-6.368 4.527-6.219 3.572-5.805 2.658-5.301 1.547-4.554 .751-3.563 .271-2.572-.209-1.385-.299 0 0" fill="#231f20"/>
<path transform="matrix(1,0,0,-1,408.6545,174.5224)" d="M0 0 15.579 5.324 16.283 3.263 9.887 1.076 12.654-7.021 19.051-4.835 19.756-6.896 4.177-12.222 3.473-10.16 10.815-7.65 8.048 .447 .704-2.062Z" fill="#231f20"/>
<path transform="matrix(1,0,0,-1,414.2726,191.76651)" d="M0 0 15.992 3.912 18.821-7.65 16.934-8.112 14.622 1.334 9.725 .136 11.889-8.711 10.013-9.17 7.849-.323 2.404-1.655 4.807-11.473 2.92-11.935Z" fill="#231f20"/>
<path transform="matrix(1,0,0,-1,429.717,214.2597)" d="M0 0 3.022 .993 5.69 1.378 6.02-.9 3.352-1.286 .174-1.2ZM-.532 3.679 2.489 4.683 5.156 5.068 5.486 2.79 2.818 2.404-.355 2.456Z" fill="#231f20"/>
<path transform="matrix(1,0,0,-1,535.4738,252.7616)" d="M0 0C0-1.636-.674-3.059-2.018-4.269-3.363-5.479-4.906-6.083-6.65-6.083-8.469-6.083-10.049-5.479-11.393-4.269-12.738-3.059-13.41-1.636-13.41 0-13.41 3.989-11.158 5.985-6.65 5.985-4.906 5.985-3.363 5.379-2.018 4.17-.674 2.959 0 1.569 0 0M-15.371 0C-15.371-1.636-16.045-3.059-17.389-4.269-18.734-5.479-20.314-6.083-22.131-6.083-23.875-6.083-25.42-5.479-26.764-4.269-28.109-3.059-28.781-1.636-28.781 0-28.781 1.569-28.109 2.959-26.764 4.17-25.42 5.379-23.875 5.985-22.131 5.985-17.625 5.985-15.371 3.989-15.371 0M6.977-74.372V-51.413C6.977-44.48 5.559-38.657 2.725-33.948-.836-27.931-6.143-24.922-13.191-24.922-25.984-24.922-32.379-32.641-32.379-48.077-32.379-54.881-30.961-60.636-28.127-65.345-24.566-71.364-19.297-74.372-12.32-74.372ZM30.416-83.006H-13.191C-16.898-83.006-21.205-82.074-26.109-80.21-31.016-78.346-34.742-76.204-37.285-73.783-43.535-67.636-46.66-59.59-46.66-49.646-46.66-40.163-43.535-32.231-37.285-25.854-31.035-19.476-22.713-16.287-12.32-16.287-2.436-16.287 5.631-19.427 11.883-25.706 17.334-31.201 20.059-38.299 20.059-46.997V-74.372H30.416Z" fill="#595252"/>
<path transform="matrix(1,0,0,-1,0,573.687)" d="M570.142 237.92H560.22006V246.554H570.142Z" fill="#595252"/>
<path transform="matrix(1,0,0,-1,0,573.687)" d="M577.009 237.92H567.087V246.554H577.009Z" fill="#595252"/>
<path transform="matrix(1,0,0,-1,0,573.687)" d="M583.876 237.92H573.956V246.554H583.876Z" fill="#595252"/>
<path transform="matrix(1,0,0,-1,0,573.687)" d="M590.745 237.92H580.823V246.554H590.745Z" fill="#595252"/>
<path transform="matrix(1,0,0,-1,0,573.687)" d="M597.612 237.92H587.692V246.554H597.612Z" fill="#595252"/>
<path transform="matrix(1,0,0,-1,0,573.687)" d="M604.482 237.92H594.56V246.554H604.482Z" fill="#595252"/>
<path transform="matrix(1,0,0,-1,0,573.687)" d="M611.349 237.92H601.429V246.554H611.349Z" fill="#595252"/>
<path transform="matrix(1,0,0,-1,0,573.687)" d="M618.218 237.92H608.296V246.554H618.218Z" fill="#595252"/>
<path transform="matrix(1,0,0,-1,0,573.687)" d="M625.085 237.92H615.163V246.554H625.085Z" fill="#595252"/>
<path transform="matrix(1,0,0,-1,0,573.687)" d="M631.952 237.92H622.03207V246.554H631.952Z" fill="#595252"/>
<path transform="matrix(1,0,0,-1,0,573.687)" d="M638.821 237.92H628.899V246.554H638.821Z" fill="#595252"/>
<path transform="matrix(1,0,0,-1,0,573.687)" d="M645.689 237.92H635.76907V246.554H645.689Z" fill="#595252"/>
<path transform="matrix(1,0,0,-1,0,573.687)" d="M652.558 237.92H642.636V246.554H652.558Z" fill="#595252"/>
<path transform="matrix(1,0,0,-1,0,573.687)" d="M659.425 237.92H649.505V246.554H659.425Z" fill="#595252"/>
<path transform="matrix(1,0,0,-1,0,573.687)" d="M666.294 237.92H656.372V246.554H666.294Z" fill="#595252"/>
<path transform="matrix(1,0,0,-1,0,573.687)" d="M673.161 237.92H663.241V246.554H673.161Z" fill="#595252"/>
<path transform="matrix(1,0,0,-1,0,573.687)" d="M680.03 237.92H670.10806V246.554H680.03Z" fill="#595252"/>
<path transform="matrix(1,0,0,-1,0,573.687)" d="M686.898 237.92H676.976V246.554H686.898Z" fill="#595252"/>
<path transform="matrix(1,0,0,-1,0,573.687)" d="M693.765 237.92H683.84506V246.554H693.765Z" fill="#595252"/>
<path transform="matrix(1,0,0,-1,0,573.687)" d="M700.634 237.92H690.712V246.554H700.634Z" fill="#595252"/>
<path transform="matrix(1,0,0,-1,0,573.687)" d="M707.501 237.92H697.581V246.554H707.501Z" fill="#595252"/>
<path transform="matrix(1,0,0,-1,0,573.687)" d="M714.37 237.92H704.448V246.554H714.37Z" fill="#595252"/>
<path transform="matrix(1,0,0,-1,0,573.687)" d="M721.237 237.92H711.317V246.554H721.237Z" fill="#595252"/>
<path transform="matrix(1,0,0,-1,0,573.687)" d="M728.107 237.92H718.185V246.554H728.107Z" fill="#595252"/>
<path transform="matrix(1,0,0,-1,0,573.687)" d="M734.974 237.92H725.052V246.554H734.974Z" fill="#595252"/>
<path transform="matrix(1,0,0,-1,0,573.687)" d="M741.841 237.92H731.921V246.554H741.841Z" fill="#595252"/>
<path transform="matrix(1,0,0,-1,0,573.687)" d="M748.71 237.92H738.788V246.554H748.71Z" fill="#595252"/>
<path transform="matrix(1,0,0,-1,0,573.687)" d="M755.577 237.92H745.65707V246.554H755.577Z" fill="#595252"/>
<path transform="matrix(1,0,0,-1,0,573.687)" d="M762.446 237.92H752.524V246.554H762.446Z" fill="#595252"/>
<path transform="matrix(1,0,0,-1,0,573.687)" d="M769.314 237.92H759.39407V246.554H769.314Z" fill="#595252"/>
<path transform="matrix(1,0,0,-1,796.2414,348.81733)" d="M0 0C0-4.055-2.219-6.083-6.65-6.083-11.158-6.083-13.41-4.055-13.41 0-13.41 3.991-11.158 5.985-6.65 5.985-4.906 5.985-3.363 5.382-2.018 4.17-.674 2.961 0 1.57 0 0M-15.154 0C-15.154-4.055-17.406-6.083-21.912-6.083-26.346-6.083-28.562-4.055-28.562 0-28.562 3.991-26.346 5.985-21.912 5.985-20.098 5.985-18.516 5.382-17.17 4.17-15.826 2.961-15.154 1.57-15.154 0M3.162 13.05H-31.941V21.684H-19.187V60.243C-19.187 67.242-20.969 73.75-24.529 79.769H-.219C-3.924 74.142-5.777 67.634-5.777 60.243V21.684H3.162Z" fill="#595252"/>
<path transform="matrix(1,0,0,-1,0,573.687)" d="M805.181 237.92H795.25906V246.554H805.181Z" fill="#595252"/>
<path transform="matrix(1,0,0,-1,0,573.687)" d="M812.048 237.92H802.128V246.554H812.048Z" fill="#595252"/>
<path transform="matrix(1,0,0,-1,843.4445,335.76753)" d="M0 0H-35.539V8.634H-18.75V81.828C-18.75 89.153-20.604 95.629-24.311 101.255H0C-3.561 95.236-5.342 88.761-5.342 81.828V19.525C-5.342 12.525-3.561 6.018 0 0" fill="#595252"/>
<path transform="matrix(1,0,0,-1,908.3098,327.13374)" d="M0 0V22.959C0 30.023-1.346 35.911-4.033 40.62-7.594 46.507-12.973 49.45-20.168 49.45-32.813 49.45-39.137 41.731-39.137 26.295-39.137 19.231-37.719 13.408-34.885 8.831-31.469 2.943-26.164 0-18.969 0ZM13.41-8.438C13.41-17.528 10.357-25.362 4.252-31.937-1.852-38.51-9.521-41.797-18.75-41.797-29.652-41.797-38.738-38.525-46.004-31.985-49.422-28.846-52.184-25.215-54.289-21.095H-38.701C-37.32-22.271-35.648-23.352-33.686-24.332-28.525-27.014-23.547-28.093-18.75-27.57-12.936-27.57-8.393-25.346-5.123-20.898-3.961-19.393-2.252-15.306 0-8.634H-20.168C-28.309-9.026-36.34-5.887-44.26 .785-50.512 6.54-53.635 14.521-53.635 24.726-53.635 34.341-50.365 42.304-43.824 48.616-37.283 54.929-28.998 58.085-18.969 58.085-9.447 58.085-1.672 55.142 4.361 49.254 10.393 43.367 13.41 36.073 13.41 27.375Z" fill="#595252"/>
<path transform="matrix(1,0,0,-1,1011.6594,335.76753)" d="M0 0H-80.129V13.441C-74.023 10.236-68.137 8.634-62.467 8.634H-20.715V31.593C-20.715 38.657-22.061 44.545-24.748 49.254-28.309 55.141-33.688 58.084-40.883 58.084-46.986 58.084-51.676 56.057-54.945 52.001-58.799 47.488-60.578 43.072-60.287 38.756L-79.691 47.979C-73.15 50.986-68.102 54.094-64.539 57.3-57.49 63.579-49.205 66.719-39.684 66.719-29.871 66.719-21.842 63.579-15.59 57.3-10.068 51.805-7.305 44.707-7.305 36.009V8.634H0Z" fill="#595252"/>
<path transform="matrix(1,0,0,-1,0,573.687)" d="M1017.001 237.92H1007.079V246.554H1017.001Z" fill="#595252"/>
<path transform="matrix(1,0,0,-1,0,573.687)" d="M1023.868 237.92H1013.948V246.554H1023.868Z" fill="#595252"/>
<path transform="matrix(1,0,0,-1,0,573.687)" d="M1030.737 237.92H1020.81509V246.554H1030.737Z" fill="#595252"/>
<path transform="matrix(1,0,0,-1,0,573.687)" d="M1037.605 237.92H1027.6849V246.554H1037.605Z" fill="#595252"/>
<path transform="matrix(1,0,0,-1,0,573.687)" d="M1044.474 237.92H1034.552V246.554H1044.474Z" fill="#595252"/>
<path transform="matrix(1,0,0,-1,0,573.687)" d="M1051.341 237.92H1041.4209V246.554H1051.341Z" fill="#595252"/>
<path transform="matrix(1,0,0,-1,0,573.687)" d="M1058.21 237.92H1048.288V246.554H1058.21Z" fill="#595252"/>
<path transform="matrix(1,0,0,-1,0,573.687)" d="M1065.077 237.92H1055.157V246.554H1065.077Z" fill="#595252"/>
<path transform="matrix(1,0,0,-1,0,573.687)" d="M1071.946 237.92H1062.024V246.554H1071.946Z" fill="#595252"/>
<path transform="matrix(1,0,0,-1,0,573.687)" d="M1078.814 237.92H1068.892V246.554H1078.814Z" fill="#595252"/>
<path transform="matrix(1,0,0,-1,0,573.687)" d="M1085.681 237.92H1075.761V246.554H1085.681Z" fill="#595252"/>
<path transform="matrix(1,0,0,-1,0,573.687)" d="M1092.55 237.92H1082.628V246.554H1092.55Z" fill="#595252"/>
<path transform="matrix(1,0,0,-1,0,573.687)" d="M1099.417 237.92H1089.497V246.554H1099.417Z" fill="#595252"/>
<path transform="matrix(1,0,0,-1,1130.8136,335.76753)" d="M0 0H-35.539V8.634H-18.75V81.828C-18.75 89.153-20.604 95.629-24.311 101.255H0C-3.561 95.236-5.342 88.761-5.342 81.828V19.525C-5.342 12.525-3.561 6.018 0 0" fill="#595252"/>
<path transform="matrix(1,0,0,-1,1164.9367,335.76753)" d="M0 0H-24.311C-20.75 6.018-18.969 12.23-18.969 18.642V82.417C-18.969 88.827-20.75 95.04-24.311 101.059H0C-3.707 95.564-5.561 89.056-5.561 81.534V19.525C-5.561 12.002-3.707 5.494 0 0" fill="#595252"/>
<path transform="matrix(1,0,0,-1,1297.3917,335.76753)" d="M0 0H-9.156V-4.611C-9.156-11.872-12.1-18.478-17.986-24.431-23.873-30.382-31.359-33.359-40.445-33.359H-42.406C-51.492-33.359-58.977-30.382-64.865-24.431-70.752-18.478-73.695-11.872-73.695-4.611V47.193C-73.695 55.239-75.477 61.747-79.037 66.719H-54.508C-58.215 61.484-60.068 54.977-60.068 47.193V5.593C-60.068-.947-58.797-6.378-56.252-10.694-52.98-16.189-48.004-18.937-41.316-18.937-34.775-18.937-29.869-16.189-26.6-10.694-23.912-6.246-22.566-.817-22.566 5.593V81.534C-22.566 88.925-24.418 95.433-28.125 101.059H-3.596C-7.303 95.433-9.156 88.925-9.156 81.534V8.634H0Z" fill="#595252"/>
<path transform="matrix(1,0,0,-1,0,573.687)" d="M1301.753 237.92H1291.833V246.554H1301.753Z" fill="#595252"/>
<path transform="matrix(1,0,0,-1,0,573.687)" d="M1308.622 237.92H1298.7V246.554H1308.622Z" fill="#595252"/>
<path transform="matrix(1,0,0,-1,0,573.687)" d="M1315.489 237.92H1305.569V246.554H1315.489Z" fill="#595252"/>
<path transform="matrix(1,0,0,-1,0,573.687)" d="M1322.359 237.92H1312.437V246.554H1322.359Z" fill="#595252"/>
<path transform="matrix(1,0,0,-1,0,573.687)" d="M1329.226 237.92H1319.3059V246.554H1329.226Z" fill="#595252"/>
<path transform="matrix(1,0,0,-1,0,573.687)" d="M1336.095 237.92H1326.173V246.554H1336.095Z" fill="#595252"/>
<path transform="matrix(1,0,0,-1,0,573.687)" d="M1342.962 237.92H1333.042V246.554H1342.962Z" fill="#595252"/>
<path transform="matrix(1,0,0,-1,1364.7667,349.01264)" d="M0 0C0-1.635-.674-3.058-2.018-4.269-3.363-5.479-4.906-6.084-6.65-6.084-11.158-6.084-13.41-4.056-13.41 0-13.41 3.99-11.158 5.984-6.65 5.984-2.219 5.984 0 3.99 0 0M4.687 13.245H-27.691V21.879H-14.064V60.438C-14.064 68.222-15.918 74.729-19.623 79.964H4.687C1.125 74.337-.654 67.829-.654 60.438V32.771C-.654 25.771 1.125 19.263 4.687 13.245" fill="#595252"/>
<path transform="matrix(1,0,0,-1,1431.2667,327.13374)" d="M0 0V22.959C0 29.892-1.418 35.715-4.252 40.424-7.67 46.441-12.938 49.45-20.061 49.45-32.705 49.45-39.029 41.731-39.029 26.295-39.029 19.231-37.686 13.344-34.996 8.635-31.436 2.748-26.094-.196-18.971-.196-16.863-.196-13.666-.132-9.377 0ZM23.002-8.634H13.408C13.408-17.332 10.5-24.888 4.687-31.299-1.418-38.297-9.232-41.797-18.752-41.797-35.688-41.797-47.496-34.896-54.182-21.095H-38.811C-33.143-25.542-26.965-27.767-20.277-27.767-9.74-27.767-2.982-21.389 0-8.634H-21.369C-25.074-8.634-29.162-7.735-33.633-5.936-38.102-4.138-41.609-1.962-44.152 .589-50.404 6.736-53.527 14.718-53.527 24.529-53.527 33.883-50.367 41.78-44.043 48.225-37.721 54.666-29.363 57.889-18.971 57.889-9.305 57.889-1.346 54.749 4.904 48.47 10.574 42.843 13.408 35.747 13.408 27.179V0H23.002Z" fill="#595252"/>
<path transform="matrix(1,0,0,-1,0,573.687)" d="M1458.302 237.92H1448.382V246.554H1458.302Z" fill="#595252"/>
<path transform="matrix(1,0,0,-1,0,573.687)" d="M1465.171 237.92H1455.249V246.554H1465.171Z" fill="#595252"/>
<path transform="matrix(1,0,0,-1,1487.7374,252.5653)" d="M0 0C0-3.925-2.219-5.887-6.65-5.887-11.158-5.887-13.41-3.925-13.41 0-13.41 3.989-11.158 5.985-6.65 5.985-2.219 5.985 0 3.989 0 0M6.541-83.202H-29V-74.568H-12.211V-36.009C-12.211-28.226-14.102-21.718-17.879-16.483H6.541C2.906-22.11 1.09-28.618 1.09-36.009V-63.677C1.09-70.677 2.906-77.185 6.541-83.202" fill="#595252"/>
<path transform="matrix(1,0,0,-1,1595.4464,252.7616)" d="M0 0C0-1.636-.674-3.059-2.018-4.269-3.363-5.479-4.906-6.083-6.65-6.083-8.469-6.083-10.049-5.479-11.393-4.269-12.738-3.059-13.41-1.636-13.41 0-13.41 3.989-11.158 5.985-6.65 5.985-4.906 5.985-3.363 5.379-2.018 4.17-.674 2.959 0 1.569 0 0M-15.371 0C-15.371-1.636-16.045-3.059-17.389-4.269-18.734-5.479-20.314-6.083-22.131-6.083-23.875-6.083-25.42-5.479-26.764-4.269-28.109-3.059-28.781-1.636-28.781 0-28.781 1.569-28.109 2.959-26.764 4.17-25.42 5.379-23.875 5.985-22.131 5.985-17.625 5.985-15.371 3.989-15.371 0M6.977-74.372V-51.413C6.977-44.48 5.559-38.657 2.725-33.948-.836-27.931-6.143-24.922-13.191-24.922-25.984-24.922-32.379-32.641-32.379-48.077-32.379-54.881-30.961-60.636-28.127-65.345-24.566-71.364-19.297-74.372-12.32-74.372ZM30.416-83.006H-13.191C-16.898-83.006-21.205-82.074-26.109-80.21-31.016-78.346-34.742-76.204-37.285-73.783-43.535-67.636-46.66-59.59-46.66-49.646-46.66-40.163-43.535-32.231-37.285-25.854-31.035-19.476-22.713-16.287-12.32-16.287-2.436-16.287 5.631-19.427 11.883-25.706 17.334-31.201 20.059-38.299 20.059-46.997V-74.372H30.416Z" fill="#595252"/>
<path transform="matrix(1,0,0,-1,0,573.687)" d="M1630.114 237.92H1620.192V246.554H1630.114Z" fill="#595252"/>
<path transform="matrix(1,0,0,-1,0,573.687)" d="M1636.982 237.92H1627.062V246.554H1636.982Z" fill="#595252"/>
<path transform="matrix(1,0,0,-1,0,573.687)" d="M1643.851 237.92H1633.929V246.554H1643.851Z" fill="#595252"/>
<path transform="matrix(1,0,0,-1,0,573.687)" d="M1650.718 237.92H1640.798V246.554H1650.718Z" fill="#595252"/>
<path transform="matrix(1,0,0,-1,0,573.687)" d="M1657.587 237.92H1647.665V246.554H1657.587Z" fill="#595252"/>
<path transform="matrix(1,0,0,-1,0,573.687)" d="M1664.454 237.92H1654.5339V246.554H1664.454Z" fill="#595252"/>
<path transform="matrix(1,0,0,-1,0,573.687)" d="M1671.323 237.92H1661.401V246.554H1671.323Z" fill="#595252"/>
<path transform="matrix(1,0,0,-1,0,573.687)" d="M1678.191 237.92H1668.271V246.554H1678.191Z" fill="#595252"/>
<path transform="matrix(1,0,0,-1,0,573.687)" d="M1685.06 237.92H1675.1381V246.554H1685.06Z" fill="#595252"/>
<path transform="matrix(1,0,0,-1,0,573.687)" d="M1691.927 237.92H1682.007V246.554H1691.927Z" fill="#595252"/>
<path transform="matrix(1,0,0,-1,0,573.687)" d="M1698.796 237.92H1688.874V246.554H1698.796Z" fill="#595252"/>
<path transform="matrix(1,0,0,-1,0,573.687)" d="M1705.663 237.92H1695.7429V246.554H1705.663Z" fill="#595252"/>
<path transform="matrix(1,0,0,-1,0,573.687)" d="M1712.532 237.92H1702.61V246.554H1712.532Z" fill="#595252"/>
<path transform="matrix(1,0,0,-1,0,573.687)" d="M1719.4 237.92H1709.48V246.554H1719.4Z" fill="#595252"/>
<path transform="matrix(1,0,0,-1,0,573.687)" d="M1726.269 237.92H1716.347V246.554H1726.269Z" fill="#595252"/>
<path transform="matrix(1,0,0,-1,0,573.687)" d="M1733.136 237.92H1723.216V246.554H1733.136Z" fill="#595252"/>
<path transform="matrix(1,0,0,-1,0,573.687)" d="M1740.005 237.92H1730.083V246.554H1740.005Z" fill="#595252"/>
<path transform="matrix(1,0,0,-1,0,573.687)" d="M1746.872 237.92H1736.9519V246.554H1746.872Z" fill="#595252"/>
<path transform="matrix(1,0,0,-1,0,573.687)" d="M1753.741 237.92H1743.819V246.554H1753.741Z" fill="#595252"/>
<path transform="matrix(1,0,0,-1,0,573.687)" d="M1760.609 237.92H1750.689V246.554H1760.609Z" fill="#595252"/>
<path transform="matrix(1,0,0,-1,0,573.687)" d="M1767.478 237.92H1757.556V246.554H1767.478Z" fill="#595252"/>
<path transform="matrix(1,0,0,-1,0,573.687)" d="M1774.345 237.92H1764.4249V246.554H1774.345Z" fill="#595252"/>
<path transform="matrix(1,0,0,-1,0,573.687)" d="M1781.214 237.92H1771.292V246.554H1781.214Z" fill="#595252"/>
<path transform="matrix(1,0,0,-1,0,573.687)" d="M1788.081 237.92H1778.161V246.554H1788.081Z" fill="#595252"/>
<path transform="matrix(1,0,0,-1,0,573.687)" d="M1794.95 237.92H1785.028V246.554H1794.95Z" fill="#595252"/>
<path transform="matrix(1,0,0,-1,0,573.687)" d="M1801.818 237.92H1791.898V246.554H1801.818Z" fill="#595252"/>
<path transform="matrix(1,0,0,-1,0,573.687)" d="M1808.687 237.92H1798.765V246.554H1808.687Z" fill="#595252"/>
<path transform="matrix(1,0,0,-1,0,573.687)" d="M1815.554 237.92H1805.6339V246.554H1815.554Z" fill="#595252"/>
<path transform="matrix(1,0,0,-1,0,573.687)" d="M1822.423 237.92H1812.501V246.554H1822.423Z" fill="#595252"/>
<path transform="matrix(1,0,0,-1,0,573.687)" d="M1829.29 237.92H1819.37V246.554H1829.29Z" fill="#595252"/>
<path transform="matrix(1,0,0,-1,1909.6359,335.76753)" d="M0 0H-56.58V8.634H-45.568V47.193C-45.568 54.192-47.35 60.7-50.91 66.719H-26.6C-30.307 61.092-32.16 54.584-32.16 47.193V8.634H-18.75V47.193C-18.75 54.977-20.641 61.484-24.42 66.719H0C-3.635 61.092-5.451 54.584-5.451 47.193V19.525C-5.451 12.525-3.635 6.018 0 0M-53.418 0H-84.27V8.634H-71.516V47.193C-71.516 54.192-73.297 60.7-76.857 66.719H-52.547C-56.252 61.092-58.105 54.584-58.105 47.193V8.634H-53.418Z" fill="#595252"/>
<path transform="matrix(1,0,0,-1,1949.2101,268.4599)" d="M0 0C-3.707-5.234-5.561-11.742-5.561-19.525V-71.33C-5.561-78.852-8.504-85.523-14.391-91.346-20.277-97.167-27.729-100.078-36.74-100.078H-37.721V-85.753C-31.18-85.753-26.273-82.94-23.004-77.315-20.316-72.933-18.971-67.536-18.971-61.126V-19.525C-18.971-12.135-20.752-5.627-24.312 0Z" fill="#595252"/>
<path transform="matrix(1,0,0,-1,2036.7511,335.76753)" d="M0 0H-80.129V13.441C-74.023 10.236-68.137 8.634-62.467 8.634H-20.715V31.593C-20.715 38.657-22.061 44.545-24.748 49.254-28.309 55.141-33.688 58.084-40.883 58.084-46.986 58.084-51.676 56.057-54.945 52.001-58.799 47.488-60.578 43.072-60.287 38.756L-79.691 47.979C-73.15 50.986-68.102 54.094-64.539 57.3-57.49 63.579-49.205 66.719-39.684 66.719-29.871 66.719-21.842 63.579-15.59 57.3-10.068 51.805-7.305 44.707-7.305 36.009V8.634H0Z" fill="#595252"/>
<path transform="matrix(1,0,0,-1,0,573.687)" d="M2042.093 237.92H2032.171V246.554H2042.093Z" fill="#595252"/>
<path transform="matrix(1,0,0,-1,0,573.687)" d="M2048.96 237.92H2039.0399V246.554H2048.96Z" fill="#595252"/>
<path transform="matrix(1,0,0,-1,0,573.687)" d="M2055.829 237.92H2045.9071V246.554H2055.829Z" fill="#595252"/>
<path transform="matrix(1,0,0,-1,0,573.687)" d="M2062.697 237.92H2052.777V246.554H2062.697Z" fill="#595252"/>
<path transform="matrix(1,0,0,-1,0,573.687)" d="M2069.566 237.92H2059.6439V246.554H2069.566Z" fill="#595252"/>
<path transform="matrix(1,0,0,-1,0,573.687)" d="M2076.433 237.92H2066.511V246.554H2076.433Z" fill="#595252"/>
<path transform="matrix(1,0,0,-1,0,573.687)" d="M2083.3 237.92H2073.3802V246.554H2083.3Z" fill="#595252"/>
<path transform="matrix(1,0,0,-1,2146.4212,300.8388)" d="M0 0C0 15.437-6.324 23.155-18.969 23.155-26.164 23.155-31.545 20.212-35.104 14.325-37.793 9.616-39.139 3.729-39.139-3.336V-26.295H-20.061C-12.938-26.295-7.596-23.352-4.035-17.464-1.346-12.887 0-7.063 0 0M14.498-1.569C14.498-11.185 11.373-19.23 5.123-25.706 4.687-26.23 3.488-27.015 1.525-28.061-6.18-32.64-15.045-34.929-25.074-34.929H-68.137V-26.491L-52.221-26.295V1.08C-52.221 9.778-49.494 16.876-44.043 22.371-37.793 28.65-29.801 31.79-20.061 31.79-9.668 31.79-1.309 28.567 5.014 22.125 11.338 15.682 14.498 7.784 14.498-1.569" fill="#595252"/>
<path transform="matrix(1,0,0,-1,487.3996,466.0888)" d="M0 0V72.413H14.22L43.865 24.046V72.413H57.426V0H42.768L13.561 47.214V0Z" fill="#184a91"/>
<path transform="matrix(1,0,0,-1,572.4406,429.7997)" d="M0 0C0-7.101 1.537-12.884 4.611-17.349 8.161-22.473 13.322-25.034 20.094-25.034 26.901-25.034 32.062-22.437 35.575-17.238 38.54-12.811 40.022-7.009 40.022 .165 40.022 7.411 38.54 13.176 35.575 17.458 32.172 22.399 27.011 24.87 20.094 24.87 13.176 24.87 7.979 22.362 4.502 17.349 1.5 13.029 0 7.247 0 0M-15.098-.494C-15.098 11.584-11.749 21.082-5.051 27.999 1.024 34.258 9.351 37.387 19.929 37.387 31.128 37.387 39.857 33.892 46.116 26.901 52.155 20.166 55.175 11.145 55.175-.165 55.175-11.438 52.173-20.405 46.171-27.065 39.912-34.057 31.238-37.552 20.148-37.552 9.021-37.552 .311-34.13-5.984-27.285-12.061-20.661-15.098-11.73-15.098-.494" fill="#184a91"/>
<path transform="matrix(1,0,0,-1,653.6926,434.52143)" d="M0 0V-19.38H13.561C18.721-19.38 22.069-19.233 23.607-18.94 28.511-17.989 30.964-14.97 30.964-9.882 30.964-5.417 28.913-2.47 24.814-1.043 22.802-.348 18.465 0 11.804 0ZM0 28.823V12.078H9.607C15.317 12.078 18.849 12.151 20.203 12.298 25.583 12.957 28.273 15.702 28.273 20.533 28.273 25.29 25.821 27.963 20.917 28.549 19.525 28.731 15.354 28.823 8.399 28.823ZM-14.604 40.846H14.329C19.38 40.846 22.894 40.736 24.87 40.517 28.896 40.004 32.189 38.888 34.752 37.168 39.912 33.617 42.493 28.768 42.493 22.619 42.493 19.216 41.577 16.104 39.748 13.286 37.917 10.468 35.446 8.345 32.336 6.918 41.485 4.246 46.062-1.592 46.062-10.596 46.062-17.952 43.206-23.626 37.497-27.614 34.824-29.481 31.549-30.634 27.67-31.073 24.668-31.402 18.794-31.567 10.047-31.567H-14.604Z" fill="#184a91"/>
<path transform="matrix(1,0,0,-1,712.4904,466.0888)" d="M0 0V71.864H14.658V12.188H51.003V0Z" fill="#184a91"/>
<path transform="matrix(1,0,0,-1,773.924,466.0888)" d="M0 0V72.413H53.692V60.171H14.604V44.14H51.002V31.897H14.604V12.188H55.119V0Z" fill="#184a91"/>
<path transform="matrix(1,0,0,-1,0,573.687)" d="M876.642 180.011H891.24606V107.598H876.642Z" fill="#184a91"/>
<path transform="matrix(1,0,0,-1,905.3547,466.0888)" d="M0 0V72.413H14.22L43.865 24.046V72.413H57.426V0H42.768L13.561 47.214V0Z" fill="#184a91"/>
<path transform="matrix(1,0,0,-1,994.6232,466.0888)" d="M0 0-.056 60.171H-21.521V72.413H36.015V60.171H14.548L14.604 0Z" fill="#184a91"/>
<path transform="matrix(1,0,0,-1,1040.0802,466.0888)" d="M0 0V72.413H53.692V60.171H14.604V44.14H51.002V31.897H14.604V12.188H55.119V0Z" fill="#184a91"/>
<path transform="matrix(1,0,0,-1,1122.211,424.3095)" d="M0 0H10.815C16.195 0 19.288 .055 20.094 .164 24.01 .604 26.682 1.866 28.108 3.953 29.097 5.416 29.591 7.228 29.591 9.388 29.591 14.438 27.102 17.366 22.125 18.172 21.062 18.317 17.494 18.392 11.419 18.392H0ZM-14.604-41.779V30.634H16.195C22.6 30.634 27.285 30.268 30.25 29.536 35.264 28.291 38.997 25.693 41.449 21.74 43.572 18.409 44.634 14.604 44.634 10.321 44.634-1.245 38.266-7.961 25.528-9.827 29.152-11.913 32.244-14.494 34.807-17.568 36.344-19.398 38.631-22.766 41.669-27.67L50.508-41.779H33.05L22.454-26.022C19.27-21.302 17.531-18.74 17.238-18.337 14.749-15.08 12.443-13.085 10.321-12.353 8.784-11.804 6.331-11.529 2.965-11.529H0V-41.779Z" fill="#184a91"/>
<path transform="matrix(1,0,0,-1,1180.7892,466.0888)" d="M0 0V72.413H14.22L43.865 24.046V72.413H57.426V0H42.768L13.561 47.214V0Z" fill="#184a91"/>
<path transform="matrix(1,0,0,-1,1292.1271,437.4306)" d="M0 0-9.937 26.9-19.764 0ZM26.956-28.658H11.035L4.722-12.188H-24.266L-30.195-28.658H-45.731L-17.513 43.755H-2.031Z" fill="#184a91"/>
<path transform="matrix(1,0,0,-1,1343.129,466.0888)" d="M0 0-.056 60.171H-21.521V72.413H36.015V60.171H14.548L14.604 0Z" fill="#184a91"/>
<path transform="matrix(1,0,0,-1,0,573.687)" d="M1388.148 180.011H1402.752V107.598H1388.148Z" fill="#184a91"/>
<path transform="matrix(1,0,0,-1,1428.8283,429.7997)" d="M0 0C0-7.101 1.537-12.884 4.611-17.349 8.161-22.473 13.322-25.034 20.094-25.034 26.901-25.034 32.062-22.437 35.575-17.238 38.54-12.811 40.022-7.009 40.022 .165 40.022 7.411 38.54 13.176 35.575 17.458 32.172 22.399 27.011 24.87 20.094 24.87 13.176 24.87 7.979 22.362 4.502 17.349 1.5 13.029 0 7.247 0 0M-15.098-.494C-15.098 11.584-11.749 21.082-5.051 27.999 1.024 34.258 9.351 37.387 19.929 37.387 31.128 37.387 39.857 33.892 46.116 26.901 52.155 20.166 55.175 11.145 55.175-.165 55.175-11.438 52.173-20.405 46.171-27.065 39.912-34.057 31.238-37.552 20.148-37.552 9.021-37.552 .311-34.13-5.984-27.285-12.061-20.661-15.098-11.73-15.098-.494" fill="#184a91"/>
<path transform="matrix(1,0,0,-1,1495.587,466.0888)" d="M0 0V72.413H14.22L43.865 24.046V72.413H57.426V0H42.768L13.561 47.214V0Z" fill="#184a91"/>
<path transform="matrix(1,0,0,-1,1606.924,437.4306)" d="M0 0-9.937 26.9-19.764 0ZM26.956-28.658H11.035L4.722-12.188H-24.266L-30.195-28.658H-45.731L-17.513 43.755H-2.031Z" fill="#184a91"/>
<path transform="matrix(1,0,0,-1,1641.9503,466.0888)" d="M0 0V71.864H14.658V12.188H51.003V0Z" fill="#184a91"/>
<path transform="matrix(1,0,0,-1,1735.3908,442.536)" d="M0 0 14.22 1.372C15.866-7.852 21.137-12.463 30.03-12.463 33.69-12.463 36.819-11.749 39.419-10.321 42.639-8.529 44.268-5.93 44.305-2.525 44.268 .914 41.999 3.421 37.497 4.995 35.85 5.58 31.952 6.643 25.804 8.18 17.934 10.119 12.443 12.498 9.333 15.316 4.831 19.306 2.58 24.174 2.58 29.92 2.58 33.873 3.715 37.441 5.984 40.626 8.181 43.7 11.108 46.023 14.769 47.598 18.721 49.281 23.479 50.123 29.042 50.123 36.984 50.123 43.371 48.494 48.202 45.237 53.655 41.467 56.528 35.775 56.822 28.163L42.163 27.56C41.541 31.365 40.132 34.093 37.937 35.739 35.886 37.24 32.866 37.99 28.878 37.99 24.632 37.99 21.302 37.13 18.886 35.41 17.385 34.275 16.616 32.775 16.58 30.908 16.58 29.187 17.312 27.725 18.776 26.517 20.569 24.979 25.09 23.277 32.336 21.41 40.425 19.324 45.641 17.678 47.983 16.47 55.229 12.627 58.854 6.313 58.854-2.471 58.854-6.827 57.663-10.779 55.285-14.329 52.905-17.88 49.685-20.497 45.622-22.18 41.413-23.937 36.16-24.815 29.866-24.815 11.895-24.815 1.939-16.544 0 0" fill="#184a91"/>
<path transform="matrix(1,0,0,-1,1852.9328,439.4618)" d="M0 0 14.164-4.502C9.918-20.094-.11-27.89-15.921-27.89-26.279-27.89-34.478-24.285-40.517-17.074-46.153-10.341-48.971-1.666-48.971 8.948-48.971 20.148-46.171 29.17-40.571 36.015-34.496 43.371-25.968 47.049-14.988 47.049-6.168 47.049 1.006 44.432 6.533 39.198 9.827 36.087 12.298 31.641 13.944 25.857L-.549 22.399C-1.392 26.168-3.176 29.133-5.902 31.293-8.629 33.452-11.933 34.532-15.812 34.532-27.854 34.532-33.874 26.37-33.874 10.047-33.838-6.899-27.89-15.372-16.031-15.372-7.687-15.372-2.343-10.249 0 0" fill="#184a91"/>
<path transform="matrix(1,0,0,-1,1879.6691,466.0888)" d="M0 0V72.413H14.604V43.92H43.262V72.413H57.92V0H43.262V31.678H14.604V0Z" fill="#184a91"/>
<path transform="matrix(1,0,0,-1,1964.8195,429.7997)" d="M0 0C0-7.101 1.537-12.884 4.611-17.349 8.161-22.473 13.322-25.034 20.094-25.034 26.901-25.034 32.062-22.437 35.575-17.238 38.54-12.811 40.022-7.009 40.022 .165 40.022 7.411 38.54 13.176 35.575 17.458 32.172 22.399 27.011 24.87 20.094 24.87 13.176 24.87 7.979 22.362 4.502 17.349 1.5 13.029 0 7.247 0 0M-15.098-.494C-15.098 11.584-11.749 21.082-5.051 27.999 1.024 34.258 9.351 37.387 19.929 37.387 31.128 37.387 39.857 33.892 46.116 26.901 52.155 20.166 55.175 11.145 55.175-.165 55.175-11.438 52.173-20.405 46.171-27.065 39.912-34.057 31.238-37.552 20.148-37.552 9.021-37.552 .311-34.13-5.984-27.285-12.061-20.661-15.098-11.73-15.098-.494" fill="#184a91"/>
<path transform="matrix(1,0,0,-1,2043.546,429.7997)" d="M0 0C0-7.101 1.537-12.884 4.611-17.349 8.161-22.473 13.322-25.034 20.094-25.034 26.901-25.034 32.062-22.437 35.575-17.238 38.54-12.811 40.023-7.009 40.023 .165 40.023 7.411 38.54 13.176 35.575 17.458 32.172 22.399 27.011 24.87 20.094 24.87 13.176 24.87 7.979 22.362 4.502 17.349 1.5 13.029 0 7.247 0 0M-15.098-.494C-15.098 11.584-11.749 21.082-5.051 27.999 1.024 34.258 9.351 37.387 19.929 37.387 31.128 37.387 39.858 33.892 46.116 26.901 52.155 20.166 55.175 11.145 55.175-.165 55.175-11.438 52.173-20.405 46.171-27.065 39.912-34.057 31.238-37.552 20.149-37.552 9.022-37.552 .311-34.13-5.984-27.285-12.061-20.661-15.098-11.73-15.098-.494" fill="#184a91"/>
<path transform="matrix(1,0,0,-1,2110.5238,466.0888)" d="M0 0V71.864H14.658V12.188H51.003V0Z" fill="#184a91"/>
</g>
</g>
</svg>
