<?xml version="1.0" encoding="UTF-8"?>
<svg version="1.1" xmlns="http://www.w3.org/2000/svg" width="1757" height="321">
<path d="M0 0 C579.81 0 1159.62 0 1757 0 C1757 105.93 1757 211.86 1757 321 C1177.19 321 597.38 321 0 321 C0 215.07 0 109.14 0 0 Z " fill="#FEFEFE" transform="translate(0,0)"/>
<path d="M0 0 C7.26 0 14.52 0 22 0 C22 14.85 22 29.7 22 45 C25.3 42.36 28.6 39.72 32 37 C39.95152688 32.59998018 49.15009494 32.83583624 58 34 C66.94287326 36.66584594 72.7612516 41.45693201 77.39453125 49.38671875 C84.86614213 63.4471277 85.74670353 82.30309516 81.3125 97.5625 C77.62852264 107.2264547 72.14235705 114.82508092 63 120 C54.48316131 123.50869763 45.74210227 124.60021207 36.9375 121.5 C31.24398935 118.97767426 26.65206251 115.0779782 22 111 C22 114.3 22 117.6 22 121 C14.74 121 7.48 121 0 121 C0 81.07 0 41.14 0 0 Z " fill="#EF556B" transform="translate(312,86)"/>
<path d="M0 0 C7.26 0 14.52 0 22 0 C22 14.85 22 29.7 22 45 C25.3 42.36 28.6 39.72 32 37 C37.47962405 33.95509314 42.1776033 33.4528838 48.3125 33.5 C49.15119629 33.50427002 49.98989258 33.50854004 50.85400391 33.51293945 C59.16530885 33.74107712 64.61218381 36.05407288 70.875 41.5 C71.57625 42.325 72.2775 43.15 73 44 C73.680625 44.7425 74.36125 45.485 75.0625 46.25 C81.34790683 55.1712226 83.37145229 65.02102842 83.25 75.75 C83.24178223 76.63107422 83.23356445 77.51214844 83.22509766 78.41992188 C82.99952855 91.62420391 81.02574746 103.80654178 71.75 113.9375 C63.98663606 120.99353523 55.08444107 123.37747023 44.828125 123.19921875 C35.05398286 122.51070874 29.14902708 117.37399237 22 111 C22 114.3 22 117.6 22 121 C14.74 121 7.48 121 0 121 C0 81.07 0 41.14 0 0 Z " fill="#EF546B" transform="translate(663,86)"/>
<path d="M0 0 C7.26 0 14.52 0 22 0 C22 39.93 22 79.86 22 121 C14.74 121 7.48 121 0 121 C0 117.37 0 113.74 0 110 C-0.639375 110.70125 -1.27875 111.4025 -1.9375 112.125 C-10.21564465 120.40314465 -17.66949819 122.32213611 -29.06518555 122.3894043 C-37.19949766 122.24925645 -42.48382156 119.87687327 -48.75 114.75 C-60.8051379 100.01594257 -62.62092635 84.57804213 -61 66 C-59.47624352 55.50696669 -54.31049417 45.81175627 -45.875 39.28515625 C-44.946875 38.64900391 -44.946875 38.64900391 -44 38 C-43.401875 37.58621094 -42.80375 37.17242187 -42.1875 36.74609375 C-36.95872853 33.81512224 -31.79890536 33.61860143 -25.9375 33.5625 C-24.80380981 33.54727295 -24.80380981 33.54727295 -23.6472168 33.53173828 C-16.64930972 33.63980819 -10.29326112 35.27160857 -5 40.0625 C-4.4225 40.56910156 -3.845 41.07570312 -3.25 41.59765625 C-2 43 -2 43 -2 45 C-1.34 45 -0.68 45 0 45 C0 30.15 0 15.3 0 0 Z " fill="#EF546B" transform="translate(1675,86)"/>
<path d="M0 0 C6.93 0 13.86 0 21 0 C21 39.6 21 79.2 21 120 C14.07 120 7.14 120 0 120 C0 116.37 0 112.74 0 109 C-0.99 109 -1.98 109 -3 109 C-3.20625 109.556875 -3.4125 110.11375 -3.625 110.6875 C-7.18453692 116.67399391 -12.67965966 119.14954887 -19.07421875 121.26953125 C-27.8950229 123.47178809 -35.97137904 122.18677715 -44 118 C-53.13148743 112.01779721 -58.15386646 102.91919072 -60.6184082 92.39648438 C-61.44384862 87.21252847 -61.36921315 81.98710228 -61.375 76.75 C-61.39949219 75.59886719 -61.42398438 74.44773437 -61.44921875 73.26171875 C-61.49054198 61.04381768 -58.34350343 50.17622099 -50 41 C-47.16207497 38.65372236 -44.26166447 36.70574679 -41 35 C-40.28714844 34.62617187 -39.57429687 34.25234375 -38.83984375 33.8671875 C-34.62937216 32.5814589 -30.56617326 32.63144396 -26.1875 32.625 C-25.32318359 32.60050781 -24.45886719 32.57601562 -23.56835938 32.55078125 C-12.85590736 32.50227203 -8.26622406 36.76705394 0 44 C0 29.48 0 14.96 0 0 Z " fill="#EF536A" transform="translate(823,87)"/>
<path d="M0 0 C63.37408313 0 63.37408313 0 73.72265625 9.59765625 C80.13571826 16.51493935 81.61674032 23.35620642 81.3359375 32.6875 C80.55027195 40.43452772 78.42733422 46.12257853 72.6875 51.5 C68.96885371 54.51179617 65.4541154 56.32970672 61 58 C60.505 58.99 60.505 58.99 60 60 C61.051875 60.2784375 61.051875 60.2784375 62.125 60.5625 C74.57057557 66.78528779 77.80897467 86.1880153 81.875 98.25 C82.28081299 99.45301758 82.68662598 100.65603516 83.10473633 101.89550781 C83.48009521 103.02827148 83.8554541 104.16103516 84.2421875 105.328125 C84.5810498 106.3480957 84.91991211 107.36806641 85.26904297 108.41894531 C86 111 86 111 86 114 C78.41 114 70.82 114 63 114 C62.10796875 111.32648438 61.2159375 108.65296875 60.296875 105.8984375 C59.42188469 103.29631469 58.54385393 100.69523657 57.66552734 98.09423828 C57.05915248 96.29322408 56.45591841 94.49114911 55.85595703 92.68798828 C54.99044475 90.08858075 54.11351532 87.49326288 53.234375 84.8984375 C52.97066101 84.0982016 52.70694702 83.2979657 52.4352417 82.47348022 C50.84948692 77.83557445 49.15240393 73.83729687 46 70 C38.95204129 66.86947474 38.95204129 66.86947474 22 67 C22 82.51 22 98.02 22 114 C14.74 114 7.48 114 0 114 C0 76.38 0 38.76 0 0 Z " fill="#EF536A" transform="translate(1058,93)"/>
<path d="M0 0 C1.20970459 0.00523682 2.41940918 0.01047363 3.66577148 0.01586914 C4.97094727 0.0190918 6.27612305 0.02231445 7.62084961 0.02563477 C9.00952213 0.03399138 10.39819401 0.04245634 11.78686523 0.05102539 C13.17944179 0.05603873 14.57202005 0.06060193 15.96459961 0.06469727 C19.38456394 0.07653105 22.80444367 0.09301659 26.22436523 0.11352539 C29.5670667 8.14464577 32.42330688 16.31838856 35.22436523 24.55102539 C35.70195723 25.94800815 36.17982306 27.34489731 36.65794373 28.74169922 C37.664498 31.68354105 38.66965026 34.62585595 39.67355347 37.56860352 C42.25926562 45.14793983 44.85219491 52.72480526 47.44702148 60.30102539 C47.70044878 61.04119904 47.95387608 61.78137268 48.21498299 62.54397583 C52.75035152 75.78550298 57.36423701 88.99791498 62.12475586 102.16040039 C62.54821289 103.34118164 62.97166992 104.52196289 63.40795898 105.73852539 C63.7643042 106.72079102 64.12064941 107.70305664 64.48779297 108.71508789 C65.22436523 111.11352539 65.22436523 111.11352539 65.22436523 114.11352539 C57.30436523 114.11352539 49.38436523 114.11352539 41.22436523 114.11352539 C38.58436523 105.86352539 35.94436523 97.61352539 33.22436523 89.11352539 C11.44436523 88.61852539 11.44436523 88.61852539 -10.77563477 88.11352539 C-11.76563477 91.74352539 -12.75563477 95.37352539 -13.77563477 99.11352539 C-14.64881358 101.85604475 -15.53184273 104.57970082 -16.46313477 107.30102539 C-17.22625977 109.54915039 -17.98938477 111.79727539 -18.77563477 114.11352539 C-26.36563477 114.11352539 -33.95563477 114.11352539 -41.77563477 114.11352539 C-40.44929322 108.14498845 -39.07827045 102.66592633 -37.03735352 96.97290039 C-36.76402695 96.19608917 -36.49070038 95.41927795 -36.20909119 94.618927 C-35.61223277 92.92394823 -35.01309495 91.22977074 -34.41192627 89.53631592 C-32.74268678 84.83398935 -31.08994264 80.12586375 -29.43579102 75.41821289 C-29.07503479 74.39273346 -28.71427856 73.36725403 -28.34259033 72.31069946 C-25.23785853 63.46934013 -22.18644715 54.61019474 -19.14672852 45.74633789 C-18.66573302 44.34447991 -18.18473023 42.94262444 -17.70372009 41.54077148 C-15.79072214 35.96419451 -13.87848522 30.3873615 -11.9715271 24.80871582 C-11.05794775 22.13618296 -10.1429424 19.46414757 -9.22621155 16.79269409 C-8.38425716 14.33886036 -7.54459646 11.88423812 -6.70750427 9.42874146 C-6.33505081 8.34487152 -5.96259735 7.26100159 -5.57885742 6.14428711 C-5.25325836 5.19254608 -4.9276593 4.24080505 -4.5921936 3.26022339 C-3.40504803 0.13926883 -3.40504803 0.13926883 0 0 Z " fill="#EF546A" transform="translate(583.775634765625,92.886474609375)"/>
<path d="M0 0 C1.6406543 -0.01160156 1.6406543 -0.01160156 3.31445312 -0.0234375 C17.48096583 0.01067812 27.76147344 4.15977433 38.5625 13.25 C35.46092047 19.08096952 31.70693819 24.11601899 27.5625 29.25 C24.82763818 28.68475716 23.65519719 28.33146117 21.5 26.4375 C12.64691462 19.84477684 2.24803473 18.99752444 -8.4375 20.25 C-11.96164613 21.68390525 -15.18585508 23.10073987 -17.4375 26.25 C-18.4185783 31.07363498 -18.22077392 35.06245566 -15.5 39.1875 C-8.88991024 43.63919311 -0.80702258 44.92868543 6.875 46.625 C30.64217666 52.10797037 30.64217666 52.10797037 37.21484375 61.6484375 C43.12694551 71.13562198 44.08591922 81.10642812 42.03125 92.08984375 C39.46107301 100.26133037 34.53515557 106.35607479 27.5625 111.25 C24.30629724 112.85156936 21.00544563 114.11254372 17.5625 115.25 C16.5725 115.58 15.5825 115.91 14.5625 116.25 C10.08820881 116.54111201 5.60767657 116.52800018 1.125 116.5625 C-0.09638672 116.59150391 -1.31777344 116.62050781 -2.57617188 116.65039062 C-16.15302278 116.74432307 -28.08404717 112.80416448 -38.3125 103.6875 C-40.42847405 101.26035329 -42.47068791 98.79957123 -44.4375 96.25 C-40.63445186 91.05789528 -36.67591458 86.09390238 -32.4375 81.25 C-29.35972468 81.57976164 -28.53172763 82.13519613 -26.5234375 84.58203125 C-25.83507812 85.46246094 -25.14671875 86.34289062 -24.4375 87.25 C-21.87220616 89.24344438 -21.87220616 89.24344438 -19.0625 90.9375 C-18.14726563 91.51886719 -17.23203125 92.10023438 -16.2890625 92.69921875 C-10.69454037 95.74171914 -5.75331445 96.59217958 0.5625 96.5625 C1.24828125 96.57861328 1.9340625 96.59472656 2.640625 96.61132812 C8.164571 96.61659907 12.12301114 95.26888733 16.375 91.75 C18.57573782 88.97012065 18.72127678 86.21907378 18.75 82.8125 C18.76417969 82.05066406 18.77835938 81.28882813 18.79296875 80.50390625 C18.52625511 77.89553722 17.94819647 76.47588765 16.5625 74.25 C9.88839046 69.51440067 1.93050532 67.8903599 -5.9375 66.25 C-16.37865155 64.0731781 -28.70366832 61.28113235 -35.03125 51.8828125 C-40.75950451 42.56088889 -41.52361491 34.02835107 -40.4375 23.25 C-38.23754201 14.9230562 -32.60149428 9.39372934 -25.390625 5.00390625 C-16.94401986 0.53506283 -9.44468838 -0.06655095 0 0 Z " fill="#EF546A" transform="translate(104.4375,91.75)"/>
<path d="M0 0 C7.26 0 14.52 0 22 0 C22 15.18 22 30.36 22 46 C25.63 43.03 29.26 40.06 33 37 C38.52237136 33.87605268 43.24214849 33.50837064 49.4375 33.5625 C50.24509766 33.54251953 51.05269531 33.52253906 51.88476562 33.50195312 C58.81459057 33.50753719 63.89950092 35.38789812 69.20703125 39.859375 C76.03205433 47.89662846 78.13537343 55.7500078 78.11352539 66.28076172 C78.11341209 68.11198074 78.11341209 68.11198074 78.11329651 69.98019409 C78.10555458 71.93519333 78.10555458 71.93519333 78.09765625 73.9296875 C78.09578901 75.28874662 78.09436655 76.64780642 78.09336853 78.00686646 C78.08956748 81.56768686 78.07975802 85.12846587 78.06866455 88.68927002 C78.05839835 92.32929932 78.05385979 95.96933537 78.04882812 99.609375 C78.03813339 106.73960179 78.02055635 113.86979382 78 121 C70.74 121 63.48 121 56 121 C55.98541748 119.27966553 55.97083496 117.55933105 55.95581055 115.78686523 C55.90402433 110.08304047 55.83870256 104.37947649 55.76428509 98.67590237 C55.71968504 95.22007548 55.68040688 91.76436366 55.65356445 88.30834961 C55.62241864 84.32901187 55.56763342 80.35016351 55.51171875 76.37109375 C55.50532883 75.13854355 55.4989389 73.90599335 55.49235535 72.63609314 C55.33111858 62.52728376 55.33111858 62.52728376 50.20703125 54.08984375 C45.08221034 51.55917997 38.12968885 52.09346944 32.734375 53.65625 C28.00773413 56.04012105 26.11095673 59.37213332 24 64 C23.14213522 67.48088589 22.85562791 70.76241819 22.79467773 74.34106445 C22.77473251 75.3817659 22.75478729 76.42246735 22.73423767 77.4947052 C22.70916893 79.16215034 22.70916893 79.16215034 22.68359375 80.86328125 C22.66281265 82.01040085 22.64203156 83.15752045 22.62062073 84.33940125 C22.55533381 87.99704098 22.49633714 91.65475138 22.4375 95.3125 C22.39429496 97.79492913 22.35068003 100.27735116 22.30664062 102.75976562 C22.19967374 108.83977167 22.09834748 114.91984867 22 121 C14.74 121 7.48 121 0 121 C0 81.07 0 41.14 0 0 Z " fill="#EF556B" transform="translate(1331,86)"/>
<path d="M0 0 C1.44838257 -0.02211548 1.44838257 -0.02211548 2.92602539 -0.04467773 C13.03927702 0.09934145 22.03171658 3.4814767 29.375 10.5625 C38.2754427 21.31720159 38.57577199 35.21755672 37.375 48.5625 C36.375 49.5625 36.375 49.5625 34.12876892 49.68275452 C33.13615555 49.68053391 32.14354218 49.67831329 31.12084961 49.67602539 C29.99976303 49.67594986 28.87867645 49.67587433 27.72361755 49.67579651 C25.89396202 49.66805458 25.89396202 49.66805458 24.02734375 49.66015625 C22.78578018 49.6587413 21.54421661 49.65732635 20.26502991 49.65586853 C16.95894509 49.65120591 13.65292854 49.64221497 10.34686279 49.63116455 C6.9753885 49.62094827 3.60390717 49.61637045 0.23242188 49.61132812 C-6.38673775 49.60027395 -13.00586493 49.58351736 -19.625 49.5625 C-19.15767456 51.46745239 -19.15767456 51.46745239 -18.6809082 53.41088867 C-18.50566116 54.12524582 -18.33041412 54.83960297 -18.14985657 55.5756073 C-16.8816223 60.37662449 -15.08286998 64.43265076 -11.125 67.5 C-4.35075007 70.37905622 3.75899946 70.83063202 10.86328125 68.87890625 C15.59204138 66.73270815 17.90926013 64.0830231 20.375 59.5625 C24.44953229 60.18554741 27.27039701 62.32782621 30.625 64.625 C31.70265625 65.35847656 32.7803125 66.09195313 33.890625 66.84765625 C34.71046875 67.41355469 35.5303125 67.97945313 36.375 68.5625 C33.73106034 75.95526333 28.4687043 81.65861521 21.65234375 85.53125 C9.33418563 91.10928387 -4.06688907 91.14911374 -16.71875 86.7578125 C-26.99377432 82.53179443 -34.31338577 75.84069149 -38.625 65.5625 C-39.016875 64.69625 -39.40875 63.83 -39.8125 62.9375 C-43.62732527 51.78647229 -43.79462962 34.54245984 -38.8828125 23.80859375 C-38.46773437 23.06738281 -38.05265625 22.32617188 -37.625 21.5625 C-37.18929688 20.76972656 -36.75359375 19.97695312 -36.3046875 19.16015625 C-31.29466484 10.93331577 -24.53342117 4.92796066 -15.50390625 1.4453125 C-10.3115434 0.26356627 -5.31292698 0.05382003 0 0 Z " fill="#EF546B" transform="translate(1562.625,119.4375)"/>
<path d="M0 0 C6.97782033 5.61407694 11.02295973 12.48675598 12.5234375 21.3046875 C12.61114046 22.9852747 12.65400958 24.66868991 12.65625 26.3515625 C12.65753906 27.27839844 12.65882812 28.20523438 12.66015625 29.16015625 C12.65628906 30.11535156 12.65242188 31.07054687 12.6484375 32.0546875 C12.65230469 33.02535156 12.65617187 33.99601562 12.66015625 34.99609375 C12.65886719 35.91777344 12.65757813 36.83945313 12.65625 37.7890625 C12.65512207 38.63178711 12.65399414 39.47451172 12.65283203 40.34277344 C12.5234375 42.3046875 12.5234375 42.3046875 11.5234375 43.3046875 C9.7741503 43.39833756 8.02107496 43.42213188 6.26928711 43.41821289 C5.14820053 43.41813736 4.02711395 43.41806183 2.87205505 43.41798401 C1.04239952 43.41024208 1.04239952 43.41024208 -0.82421875 43.40234375 C-2.06578232 43.4009288 -3.30734589 43.39951385 -4.58653259 43.39805603 C-7.89261741 43.39339341 -11.19863396 43.38440247 -14.50469971 43.37335205 C-17.876174 43.36313577 -21.24765533 43.35855795 -24.61914062 43.35351562 C-31.23830025 43.34246145 -37.85742743 43.32570486 -44.4765625 43.3046875 C-43.8537618 45.24243585 -43.22502032 47.17827553 -42.59375 49.11328125 C-42.24425293 50.19150146 -41.89475586 51.26972168 -41.53466797 52.38061523 C-39.87004354 56.98080138 -37.9857422 59.40668145 -33.8046875 61.89453125 C-27.44532128 64.58905144 -19.38449613 64.72416115 -12.86328125 62.35546875 C-8.92505876 60.00440184 -6.08167176 57.10380517 -3.4765625 53.3046875 C0.41350523 54.69249545 3.48902458 56.5199102 6.8359375 58.9296875 C8.16044922 59.87714844 8.16044922 59.87714844 9.51171875 60.84375 C10.17558594 61.32585937 10.83945313 61.80796875 11.5234375 62.3046875 C10.53204072 69.03696331 6.43685274 73.0277291 1.1484375 77.0546875 C-9.10583711 83.93614331 -21.76175572 84.5496599 -33.703125 82.84375 C-44.51833778 80.46831567 -53.05731728 75.41145672 -59.4765625 66.3046875 C-66.70481006 54.2500552 -68.47080032 39.53797643 -65.79296875 25.796875 C-62.34978695 13.71002105 -57.04242623 5.2815118 -46.4765625 -1.6953125 C-33.45242733 -8.93653051 -12.18251759 -8.3394521 0 0 Z " fill="#EF546A" transform="translate(1493.4765625,125.6953125)"/>
<path d="M0 0 C1.04736328 -0.02900391 2.09472656 -0.05800781 3.17382812 -0.08789062 C11.63181174 -0.15622735 18.15126772 1.61031009 25.3125 6.125 C32.50618045 13.53025929 33.73214651 22.19093944 33.81640625 32.14453125 C33.83340073 33.176884 33.8503952 34.20923676 33.86790466 35.27287292 C33.92087034 38.55685386 33.9612834 41.84082259 34 45.125 C34.04389194 48.4269688 34.09050254 51.72883889 34.14280701 55.03068542 C34.17483508 57.08278464 34.2017028 59.13497184 34.22303772 61.18721008 C34.23652756 62.10874374 34.2500174 63.0302774 34.26391602 63.97973633 C34.27342789 64.79436844 34.28293976 65.60900055 34.29273987 66.44831848 C34.23539087 68.32713752 34.23539087 68.32713752 35.4375 69.3125 C36.78497084 69.54325082 38.14127565 69.72403063 39.5 69.875 C40.799375 70.019375 42.09875 70.16375 43.4375 70.3125 C44.28431133 75.39336796 44.52788099 80.16078377 44.4375 85.3125 C38.73416814 88.28815141 33.85643732 89.21657568 27.4375 88.3125 C22.13451339 86.62063806 18.42898611 84.09887777 15.4375 79.3125 C14.6875 77 14.6875 77 14.4375 75.3125 C13.7775 75.3125 13.1175 75.3125 12.4375 75.3125 C12.1590625 76.364375 12.1590625 76.364375 11.875 77.4375 C9.04909988 83.08930024 4.55735001 86.2069359 -1.375 88.1875 C-10.62722417 90.5215203 -19.08193228 89.94889001 -27.5625 85.3125 C-33.51347865 80.31541228 -37.14139363 74.54248986 -37.91015625 66.8203125 C-38.17216494 60.03495921 -38.31577448 54.40192126 -34.0390625 48.8828125 C-25.81126831 40.13261868 -16.395235 37.77584407 -4.93554688 35.890625 C0.8320773 34.85894512 5.30611619 33.1599731 10.4375 30.3125 C10.50940552 29.32020386 10.50940552 29.32020386 10.58276367 28.30786133 C10.69710286 26.72998047 10.81144206 25.15209961 10.92578125 23.57421875 C10.63811058 21.10598422 10.63811058 21.10598422 8.296875 19.5546875 C2.11334616 16.86840038 -4.6273053 17.25171034 -10.90234375 19.51953125 C-15.03774565 21.53867062 -18.68032711 23.5419273 -22.15625 26.578125 C-24.5625 28.3125 -24.5625 28.3125 -26.6328125 28.39453125 C-29.46971183 26.80380025 -30.69783088 24.72500038 -32.4375 22 C-33.07429688 21.03449219 -33.71109375 20.06898438 -34.3671875 19.07421875 C-35.5625 16.3125 -35.5625 16.3125 -34.97265625 14.140625 C-26.68728622 3.39948048 -12.74654761 0.11469599 0 0 Z " fill="#EF556B" transform="translate(1193.5625,119.6875)"/>
<path d="M0 0 C6.93 0 13.86 0 21 0 C21 15.18 21 30.36 21 46 C22.65 44.35 24.3 42.7 26 41 C27.3060835 39.90417615 28.63739977 38.83719735 30 37.8125 C30.639375 37.32394531 31.27875 36.83539063 31.9375 36.33203125 C39.60427428 31.38057286 49.19586537 32.07720339 58 33 C64.46484661 34.66659715 69.12024823 38.05552622 72.71720886 43.69326782 C77.51397725 52.31888089 77.40584227 61.34548868 77.29296875 70.9765625 C77.28736063 72.39716134 77.28309629 73.81776605 77.28010559 75.2383728 C77.26875231 78.94395491 77.23936968 82.64917383 77.20599365 86.35461426 C77.17508513 90.14911997 77.16155625 93.94368543 77.14648438 97.73828125 C77.11448861 105.15903746 77.06180118 112.57942119 77 120 C69.74 120 62.48 120 55 120 C54.98541748 118.20860596 54.97083496 116.41721191 54.95581055 114.5715332 C54.90410634 108.64418634 54.83880601 102.71707253 54.76428509 96.78997517 C54.71961054 93.19732735 54.68034838 89.60479216 54.65356445 86.01196289 C54.62750177 82.54284303 54.58707944 79.07415725 54.53681374 75.60530663 C54.51207779 73.64178155 54.50210773 71.67808842 54.49235535 69.71443176 C54.47256119 68.5135643 54.45276703 67.31269684 54.43237305 66.07543945 C54.41571846 64.49325371 54.41571846 64.49325371 54.39872742 62.87910461 C53.79522808 58.52139642 52.14588677 55.88308643 48.68359375 53.21484375 C43.90761338 51.0527915 39.12889563 51.39373109 34 52 C28.45810582 54.4182811 25.60141351 58.693531 23 64 C22.05013912 67.11445913 21.84987653 69.97869565 21.79467773 73.22753906 C21.77473251 74.26831604 21.75478729 75.30909302 21.73423767 76.38140869 C21.70916893 78.05659576 21.70916893 78.05659576 21.68359375 79.765625 C21.66281265 80.91415955 21.64203156 82.06269409 21.62062073 83.24603271 C21.55525007 86.91396111 21.49629806 90.58196093 21.4375 94.25 C21.39430293 96.73698654 21.35068825 99.22396587 21.30664062 101.7109375 C21.19958138 107.80721852 21.09827853 113.90357136 21 120 C14.07 120 7.14 120 0 120 C0 80.4 0 40.8 0 0 Z " fill="#EF536A" transform="translate(166,87)"/>
<path d="M0 0 C7.26 0 14.52 0 22 0 C22.0093457 1.85197998 22.01869141 3.70395996 22.02832031 5.61206055 C22.06387735 11.73902605 22.11769384 17.8656196 22.18390274 23.99232769 C22.22337002 27.70608444 22.2555618 31.41960436 22.27099609 35.13354492 C22.2861682 38.71945349 22.32062195 42.30471096 22.36830902 45.89032936 C22.38311741 47.25656275 22.39104071 48.62288911 22.39188385 49.9892025 C22.39425649 51.90656796 22.42363754 53.82384189 22.45410156 55.7409668 C22.46298401 56.83128708 22.47186646 57.92160736 22.48101807 59.04496765 C23.12006834 62.68365738 24.46197315 64.36434391 27 67 C31.16373021 69.0818651 36.45418359 68.32725118 41 68 C45.78394426 66.37687605 48.21115115 64.18327328 51 60 C52.72370819 56.34034912 53.26322329 53.41631177 53.31884766 49.38354492 C53.33871735 48.28278122 53.35858704 47.18201752 53.37905884 46.04789734 C53.39061005 44.8706459 53.40216125 43.69339447 53.4140625 42.48046875 C53.43342865 41.26676102 53.4527948 40.05305328 53.4727478 38.80256653 C53.53246571 34.93094889 53.57889855 31.05930139 53.625 27.1875 C53.66318688 24.560534 53.70223902 21.93358043 53.7421875 19.30664062 C53.83816116 12.87119482 53.92222158 6.4356904 54 0 C61.26 0 68.52 0 76 0 C76 28.38 76 56.76 76 86 C69.07 86 62.14 86 55 86 C55 81.71 55 77.42 55 73 C54.34 73 53.68 73 53 73 C52.835 73.680625 52.67 74.36125 52.5 75.0625 C49.48314276 80.9705121 44.44075234 84.83313598 38.1875 86.9375 C28.73280378 89.25057553 19.62270382 88.79336641 11 84 C5.09957595 78.93941733 1.23155125 72.70488582 0 65 C-0.08529699 62.82320055 -0.11775542 60.64404204 -0.11352539 58.46557617 C-0.11344986 57.16460495 -0.11337433 55.86363373 -0.11329651 54.52323914 C-0.10819062 53.11314861 -0.10297464 51.70305849 -0.09765625 50.29296875 C-0.09578979 48.84279937 -0.09436696 47.39262935 -0.09336853 45.94245911 C-0.0895613 42.13667034 -0.07974642 38.33092009 -0.06866455 34.52514648 C-0.05841177 30.63721233 -0.05386264 26.74927192 -0.04882812 22.86132812 C-0.03812246 15.24086587 -0.02054028 7.62044325 0 0 Z " fill="#EF546B" transform="translate(414,121)"/>
<path d="M0 0 C6.93 0 13.86 0 21 0 C21.01458252 1.75062744 21.02916504 3.50125488 21.04418945 5.30493164 C21.09597107 11.10853369 21.16129186 16.91189981 21.23571491 22.71524906 C21.28031906 26.23161053 21.31959638 29.7478588 21.34643555 33.2644043 C21.37757643 37.313281 21.43236099 41.36154538 21.48828125 45.41015625 C21.49467117 46.66458023 21.5010611 47.91900421 21.50764465 49.21144104 C21.61316161 55.50538922 21.76477139 60.5117531 25 66 C29.86562923 68.93880767 35.49617915 68.50991281 41 68 C46.25578638 66.27992446 48.3638016 63.80164708 51 59 C53.61705176 53.1113387 53.34929174 47.14723521 53.4140625 40.8203125 C53.43342865 39.6524118 53.4527948 38.48451111 53.4727478 37.28121948 C53.53237661 33.56255322 53.57886274 29.84385572 53.625 26.125 C53.66319509 23.59894507 53.70224771 21.07290295 53.7421875 18.546875 C53.83806468 12.36468776 53.92215784 6.18243956 54 0 C61.26 0 68.52 0 76 0 C76 28.38 76 56.76 76 86 C69.07 86 62.14 86 55 86 C55 81.71 55 77.42 55 73 C54.34 73.680625 53.68 74.36125 53 75.0625 C44.68679264 83.352023 39.64033918 87.35855416 27.75 87.375 C26.83347656 87.39949219 25.91695312 87.42398438 24.97265625 87.44921875 C17.23087114 87.4823505 11.88481906 85.75369093 6.25 80.375 C-0.29564614 71.45565236 -0.54931714 62.01727462 -0.390625 51.3671875 C-0.38314855 49.87933112 -0.37746227 48.39146479 -0.37347412 46.90359497 C-0.35832785 43.02034485 -0.31914424 39.13770973 -0.2746582 35.25469971 C-0.2334651 31.27925939 -0.21541223 27.30371801 -0.1953125 23.328125 C-0.15263639 15.5517728 -0.08238014 7.77605153 0 0 Z " fill="#EF546B" transform="translate(868,121)"/>
<path d="M0 0 C0.96309082 0.01281006 1.92618164 0.02562012 2.91845703 0.03881836 C14.56373205 0.36988447 22.95684 2.947456 31.125 11.5 C29.59251951 15.08402695 27.4575399 17.52850134 24.75 20.3125 C23.97914062 21.12332031 23.20828125 21.93414062 22.4140625 22.76953125 C20.125 24.5 20.125 24.5 18.02734375 24.38671875 C15.18989573 23.06413004 12.70849211 21.25897335 10.125 19.5 C6.60193008 18.32564336 3.3573872 18.24027882 -0.3125 18.1875 C-1.63121094 18.15011719 -2.94992187 18.11273438 -4.30859375 18.07421875 C-7.90734161 18.19921718 -7.90734161 18.19921718 -10.328125 20.359375 C-12.23217107 22.99426703 -12.28353017 24.31346466 -11.875 27.5 C-11.545 28.49 -11.215 29.48 -10.875 30.5 C-8.82483184 31.39813937 -8.82483184 31.39813937 -6.25 31.9375 C-5.25613281 32.18757813 -4.26226563 32.43765625 -3.23828125 32.6953125 C-0.90270466 33.2541148 1.43326146 33.81129051 3.76953125 34.3671875 C24.96324081 39.64924488 24.96324081 39.64924488 30.8125 48.1875 C34.34778453 54.22564083 34.78291246 59.60543791 34.125 66.5 C32.18849848 73.61388383 29.32654563 79.54049978 22.8828125 83.484375 C21.6780452 84.08544627 20.46688371 84.67385336 19.25 85.25 C18.65058594 85.55292969 18.05117187 85.85585937 17.43359375 86.16796875 C6.9312252 91.29385362 -5.93943644 90.68811837 -16.984375 87.54296875 C-24.7336454 84.74694821 -31.14478687 81.3506535 -35.875 74.5 C-34.49064389 70.31716058 -32.58504652 67.75104381 -29.5 64.625 C-28.72914062 63.82320312 -27.95828125 63.02140625 -27.1640625 62.1953125 C-24.875 60.5 -24.875 60.5 -22.79296875 60.5625 C-20.67455989 61.5979748 -19.26232851 62.74413828 -17.5625 64.375 C-10.9000076 70.20994071 -5.65588397 70.83647826 3.0390625 70.8984375 C6.49743052 70.45191403 8.38483087 69.63782565 11.125 67.5 C12.37338381 64.09471004 12.37338381 64.09471004 12.125 60.5 C9.4089126 57.0658574 7.02689001 55.85458376 2.8359375 54.7890625 C1.81113281 54.51320312 0.78632812 54.23734375 -0.26953125 53.953125 C-2.39930624 53.40716092 -4.52950614 52.86285134 -6.66015625 52.3203125 C-15.36895784 49.97187162 -25.02337377 46.65073207 -29.875 38.5 C-33.24774468 31.94597649 -34.11808501 25.28470457 -32.25390625 18.109375 C-29.66351352 11.33981532 -25.20903805 6.68647879 -18.75439453 3.43017578 C-12.41196181 0.61396034 -6.89709668 -0.13983055 0 0 Z " fill="#EF546B" transform="translate(1279.875,119.5)"/>
<path d="M0 0 C6.93 0 13.86 0 21 0 C21.01981934 2.94776367 21.03963867 5.89552734 21.06005859 8.93261719 C21.12691591 18.66368601 21.20455614 28.39464717 21.28752708 38.12559128 C21.33750817 44.02641186 21.38383816 49.92721438 21.421875 55.828125 C21.45870473 61.52106108 21.50505859 67.2138467 21.55806351 72.90665436 C21.57661971 75.08036921 21.59172312 77.25411634 21.60334396 79.42787933 C21.62018525 82.4686784 21.64921553 85.50913197 21.68115234 88.54980469 C21.68331253 89.45179596 21.68547272 90.35378723 21.68769836 91.28311157 C21.69886185 92.11319733 21.71002533 92.94328308 21.7215271 93.79852295 C21.72705786 94.51752148 21.73258862 95.23652 21.73828697 95.97730637 C22.04683417 98.36196588 22.72137112 99.96913831 24 102 C26.18541552 102.6993514 26.18541552 102.6993514 28.625 102.75 C30.06875 102.8325 31.5125 102.915 33 103 C33.66 108.61 34.32 114.22 35 120 C25.7942754 122.63020703 19.04163298 123.23336389 10.1953125 119.25390625 C4.58133598 116.04734671 2.49757544 111.39578546 0.61826134 105.53265572 C-0.43922004 101.20077196 -0.39200615 96.96137 -0.34057617 92.52319336 C-0.34101425 91.51726135 -0.34145233 90.51132935 -0.34190369 89.47491455 C-0.33982866 86.17968729 -0.31655827 82.88498115 -0.29296875 79.58984375 C-0.28736823 77.29342425 -0.28310029 74.99700116 -0.28010559 72.70057678 C-0.2686928 66.6786598 -0.23925626 60.65696249 -0.20599365 54.63513184 C-0.17521582 48.48139415 -0.16158379 42.32762072 -0.14648438 36.17382812 C-0.11438314 24.11577375 -0.06164429 12.05793957 0 0 Z " fill="#EF5269" transform="translate(968,87)"/>
<path d="M0 0 C7.26 0 14.52 0 22 0 C22 28.38 22 56.76 22 86 C14.74 86 7.48 86 0 86 C0 57.62 0 29.24 0 0 Z " fill="#EF556B" transform="translate(266,121)"/>
<path d="M0 0 C4.125 -0.0825 8.25 -0.165 12.5 -0.25 C13.78455078 -0.28641602 15.06910156 -0.32283203 16.39257812 -0.36035156 C23.90530433 -0.43281407 29.82695853 0.00605325 35.51318359 5.44824219 C42.12955321 12.98743998 41.67749836 20.31534143 41.19970703 29.88916016 C40.66977953 35.49032539 38.55393878 39.31286647 34.8125 43.375 C22.98261032 50.21004737 14.55907663 48 0 48 C0 32.16 0 16.32 0 0 Z " fill="#143F7A" transform="translate(1656,240)"/>
<path d="M0 0 C5.80384712 2.74919074 9.36357977 6.95889775 11.75 12.875 C14.61547415 22.30587373 14.35802812 34.05713189 10 43 C7.31672399 47.0286721 4.59856569 50.24388699 0 52 C-5.94342904 52.74685947 -12.10855922 53.03678958 -17.5 50.125 C-22.12826755 46.52632587 -24.61073235 42.70432019 -26 37 C-26.39787327 33.28919293 -26.52058035 29.60554051 -26.5625 25.875 C-26.57732422 24.93277588 -26.59214844 23.99055176 -26.60742188 23.01977539 C-26.50107021 15.81761518 -25.0242228 10.36237429 -20.1484375 4.94140625 C-19.56320312 4.48636719 -18.97796875 4.03132812 -18.375 3.5625 C-17.78460937 3.08941406 -17.19421875 2.61632812 -16.5859375 2.12890625 C-11.74985566 -1.31352639 -5.69351262 -0.49930927 0 0 Z " fill="#FEFCFD" transform="translate(711,138)"/>
<path d="M0 0 C4.87976612 2.2656057 7.94795411 5.59148927 11 10 C14.17525477 20.45835661 15.06074097 32.98955743 10.203125 43.046875 C7.28532462 47.78356393 4.21594508 50.27137267 -1 52 C-6.57939015 52.64579751 -11.42669803 52.78665099 -16.5 50.25 C-17.325 49.5075 -18.15 48.765 -19 48 C-19.721875 47.443125 -20.44375 46.88625 -21.1875 46.3125 C-25.87070102 40.33738146 -26.5322054 32.8579384 -26.4375 25.5 C-26.42920166 24.66702393 -26.42090332 23.83404785 -26.41235352 22.97583008 C-26.21678693 15.88462742 -25.29726381 10.4294481 -20.24609375 5.17578125 C-13.85557318 -0.54767037 -8.50852045 -0.73671336 0 0 Z " fill="#FEFDFD" transform="translate(360,138)"/>
<path d="M0 0 C5.3314355 3.11364573 7.84137958 7.31053029 9.9375 13 C11.92714205 22.85255439 11.90738252 34.50622107 6.48828125 43.27734375 C3.34820149 47.32874004 -0.1159833 50.1235767 -5.2421875 50.8359375 C-12.62650519 50.77839736 -18.10197835 50.61960438 -23.625 45.25 C-27.94511414 38.30695941 -28.93066444 32.08902331 -28.875 24.0625 C-28.87072998 23.1351001 -28.86645996 22.2077002 -28.86206055 21.25219727 C-28.65027251 12.75597949 -26.91790655 6.89605163 -20.75 0.875 C-14.63712476 -2.82489817 -6.49727956 -2.89593032 0 0 Z " fill="#FEFDFD" transform="translate(812.375,139.5625)"/>
<path d="M0 0 C4.88521023 2.26813332 7.90641349 5.61741911 11 10 C14.27223719 19.11878684 15.11117731 32.27047786 11.3125 41.375 C8.32146068 46.67250978 4.80364987 50.08496279 -1 52 C-6.55434625 52.64289876 -11.41764881 52.76291932 -16.5 50.3125 C-23.16949646 44.14321578 -25.43837713 38.98596591 -26 30 C-26.06574219 28.96875 -26.13148437 27.9375 -26.19921875 26.875 C-26.47573498 18.78928414 -25.93817555 11.29778623 -20.24609375 5.0859375 C-13.85067624 -0.54843868 -8.44870325 -0.73153406 0 0 Z " fill="#FEFDFD" transform="translate(1662,138)"/>
<path d="M0 0 C4.186875 -0.061875 8.37375 -0.12375 12.6875 -0.1875 C13.99936279 -0.21481201 15.31122559 -0.24212402 16.6628418 -0.27026367 C17.70609619 -0.27775635 18.74935059 -0.28524902 19.82421875 -0.29296875 C20.88729248 -0.3086792 21.95036621 -0.32438965 23.0456543 -0.34057617 C27.21121649 0.13962871 29.7864718 1.8701634 32.8125 4.6875 C34.57552858 8.12076619 34.77220044 11.2837854 34 15 C32.56387449 17.6478564 30.94500037 19.66599956 29 22 C30.11375 22.309375 30.11375 22.309375 31.25 22.625 C34.93646177 24.46823088 36.13871846 26.34637327 38 30 C38.65293024 35.22344192 37.845108 38.58517724 35 43 C30.11066524 47.63859964 26.49558221 48.1298803 19.921875 48.09765625 C18.87612305 48.09515869 17.83037109 48.09266113 16.75292969 48.09008789 C14.77147949 48.07643188 14.77147949 48.07643188 12.75 48.0625 C8.5425 48.041875 4.335 48.02125 0 48 C0 32.16 0 16.32 0 0 Z " fill="#113D78" transform="translate(1530,240)"/>
<path d="M0 0 C3.96 0 7.92 0 12 0 C15.28788182 7.04228741 17.84578682 14.17622284 20.25 21.5625 C20.61351562 22.66658203 20.97703125 23.77066406 21.3515625 24.90820312 C22.23853561 27.60413456 23.1212459 30.30138071 24 33 C26.12033566 29.81949651 27.12812225 27.01623361 28.34765625 23.3984375 C28.67279457 22.44283432 28.67279457 22.44283432 29.00450134 21.46792603 C29.69464228 19.43832662 30.37904335 17.40685917 31.0625 15.375 C31.75002596 13.33617955 32.43882333 11.29782566 33.13121033 9.26065063 C33.75743377 7.41753113 34.37894879 5.57281389 35.00024414 3.72802734 C36 1 36 1 37 0 C40.96 0 44.92 0 49 0 C49 15.84 49 31.68 49 48 C46.03 48 43.06 48 40 48 C39.67 38.1 39.34 28.2 39 18 C38.28972656 20.08183594 37.57945313 22.16367187 36.84765625 24.30859375 C36.15996415 26.31770604 35.47126723 28.3264712 34.7824707 30.33520508 C34.30322682 31.73458422 33.8250332 33.13432349 33.34790039 34.53442383 C32.66306015 36.54343077 31.97448943 38.5511247 31.28515625 40.55859375 C30.87144775 41.76829834 30.45773926 42.97800293 30.03149414 44.22436523 C29 47 29 47 28 48 C25.36 48 22.72 48 20 48 C14.555 32.655 14.555 32.655 9 17 C8.67 27.23 8.34 37.46 8 48 C5.36 48 2.72 48 0 48 C0 32.16 0 16.32 0 0 Z " fill="#123E79" transform="translate(1287,240)"/>
<path d="M0 0 C3.96 0 7.92 0 12 0 C15.28788182 7.04228741 17.84578682 14.17622284 20.25 21.5625 C20.61351562 22.66658203 20.97703125 23.77066406 21.3515625 24.90820312 C22.23853561 27.60413456 23.1212459 30.30138071 24 33 C26.12033566 29.81949651 27.12812225 27.01623361 28.34765625 23.3984375 C28.67279457 22.44283432 28.67279457 22.44283432 29.00450134 21.46792603 C29.69464228 19.43832662 30.37904335 17.40685917 31.0625 15.375 C31.75002596 13.33617955 32.43882333 11.29782566 33.13121033 9.26065063 C33.75743377 7.41753113 34.37894879 5.57281389 35.00024414 3.72802734 C36 1 36 1 37 0 C40.96 0 44.92 0 49 0 C49 15.84 49 31.68 49 48 C46.03 48 43.06 48 40 48 C39.67 38.1 39.34 28.2 39 18 C38.28972656 20.08183594 37.57945313 22.16367187 36.84765625 24.30859375 C36.15996415 26.31770604 35.47126723 28.3264712 34.7824707 30.33520508 C34.30322682 31.73458422 33.8250332 33.13432349 33.34790039 34.53442383 C32.66306015 36.54343077 31.97448943 38.5511247 31.28515625 40.55859375 C30.87144775 41.76829834 30.45773926 42.97800293 30.03149414 44.22436523 C29 47 29 47 28 48 C25.36 48 22.72 48 20 48 C14.555 32.655 14.555 32.655 9 17 C8.67 27.23 8.34 37.46 8 48 C5.36 48 2.72 48 0 48 C0 32.16 0 16.32 0 0 Z " fill="#123E79" transform="translate(1124,240)"/>
<path d="M0 0 C4.29 0 8.58 0 13 0 C16.73162743 8.67756873 20.01781046 17.42761994 23.0769043 26.35742188 C23.82189415 28.52736244 24.57767798 30.6933563 25.33398438 32.859375 C25.81315135 34.2497757 26.29169082 35.64039285 26.76953125 37.03125 C27.19854736 38.27455078 27.62756348 39.51785156 28.06958008 40.79882812 C29 44 29 44 29 48 C25.7 48 22.4 48 19 48 C18.01 44.7 17.02 41.4 16 38 C9.73 37.67 3.46 37.34 -3 37 C-3.99 40.63 -4.98 44.26 -6 48 C-9.3 48 -12.6 48 -16 48 C-13.41015461 37.70606578 -9.86636322 27.80253867 -6.3125 17.8125 C-5.69950936 16.08020563 -5.08687628 14.34778468 -4.47460938 12.61523438 C-2.98719046 8.40868595 -1.49494612 4.20387895 0 0 Z " fill="#15407B" transform="translate(1215,240)"/>
<path d="M0 0 C26.91267123 0 26.91267123 0 32.34765625 5.28125 C34.36220837 8.59597406 34.50507213 10.64388378 34.4375 14.5 C34.43621094 15.6034375 34.43492188 16.706875 34.43359375 17.84375 C33.87064299 21.9416258 32.57050865 24.61937653 29.44921875 27.36328125 C22.8172517 30.93660274 16.40446609 30.28478716 9 30 C9 35.94 9 41.88 9 48 C6.03 48 3.06 48 0 48 C0 32.16 0 16.32 0 0 Z " fill="#113D78" transform="translate(1368,240)"/>
<path d="M0 0 C3.980625 -0.061875 7.96125 -0.12375 12.0625 -0.1875 C13.92467163 -0.22846802 13.92467163 -0.22846802 15.82446289 -0.27026367 C21.99771598 -0.31662663 26.61123622 -0.12800318 32 3 C36.53061211 7.88829201 37.28823492 10.96474337 37.22265625 17.45703125 C36.85688196 21.63455864 35.15364051 24.46181265 32.6875 27.75 C28.5708211 30.79939178 23.92445155 31.24664383 18.9453125 31.1953125 C17.94516113 31.19031738 16.94500977 31.18532227 15.91455078 31.18017578 C14.03872314 31.15286377 14.03872314 31.15286377 12.125 31.125 C8.12375 31.08375 4.1225 31.0425 0 31 C0 20.77 0 10.54 0 0 Z " fill="#FEFCFC" transform="translate(1080,111)"/>
<path d="M0 0 C10.56 0 21.12 0 32 0 C32 2.64 32 5.28 32 8 C24.74 8 17.48 8 10 8 C10 11.63 10 15.26 10 19 C16.27 19 22.54 19 29 19 C29 21.64 29 24.28 29 27 C22.4 27 15.8 27 9 27 C9 31.29 9 35.58 9 40 C16.59 40 24.18 40 32 40 C32 42.64 32 45.28 32 48 C21.44 48 10.88 48 0 48 C0 32.16 0 16.32 0 0 Z " fill="#133F79" transform="translate(1596,240)"/>
<path d="M0 0 C2.97 0 5.94 0 9 0 C9.33 5.94 9.66 11.88 10 18 C11.65 16.68 13.3 15.36 15 14 C18.74286778 13.22023588 22.23878922 13.33825314 26 14 C29.4400673 16.52739638 31.43210239 19.06693957 33 23 C33.22705078 26.02441406 33.22705078 26.02441406 33.1953125 29.515625 C33.18886719 30.76601563 33.18242188 32.01640625 33.17578125 33.3046875 C33.15902344 34.60664063 33.14226562 35.90859375 33.125 37.25 C33.11597656 38.56742187 33.10695313 39.88484375 33.09765625 41.2421875 C33.07408533 44.49497462 33.04118022 47.74739589 33 51 C29.7 51 26.4 51 23 51 C22.97494385 50.18732666 22.9498877 49.37465332 22.92407227 48.53735352 C22.80850882 44.87889248 22.68560416 41.22071472 22.5625 37.5625 C22.52318359 36.28310547 22.48386719 35.00371094 22.44335938 33.68554688 C22.40146484 32.47060547 22.35957031 31.25566406 22.31640625 30.00390625 C22.27974854 28.87799072 22.24309082 27.7520752 22.20532227 26.59204102 C22.28781955 24.07146559 22.28781955 24.07146559 21 23 C16.95198727 22.58680634 16.95198727 22.58680634 13 23 C10.04070176 26.10891803 9.60064025 28.41592651 9.48828125 32.640625 C9.45283203 33.71054687 9.41738281 34.78046875 9.38085938 35.8828125 C9.34702148 37.54957031 9.34702148 37.54957031 9.3125 39.25 C9.27833984 40.37664062 9.24417969 41.50328125 9.20898438 42.6640625 C9.12656986 45.44260901 9.05739702 48.22084252 9 51 C6.03 51 3.06 51 0 51 C0 34.17 0 17.34 0 0 Z " fill="#16417B" transform="translate(1411,237)"/>
<path d="M0 0 C3 1 3 1 3.89225769 2.70127869 C4.13430435 3.43915115 4.37635101 4.17702362 4.62573242 4.93725586 C4.90579636 5.77159653 5.18586029 6.60593719 5.47441101 7.46556091 C5.76516006 8.37282425 6.05590912 9.28008759 6.35546875 10.21484375 C6.81521843 11.60395714 6.81521843 11.60395714 7.28425598 13.02113342 C7.93099745 14.98223078 8.57201155 16.9452247 9.20776367 18.90991211 C10.18346319 21.92502541 11.17502242 24.93453328 12.16992188 27.94335938 C12.79520095 29.84604876 13.41958037 31.74903407 14.04296875 33.65234375 C14.3397905 34.55758286 14.63661224 35.46282196 14.94242859 36.39549255 C15.21303604 37.23298538 15.48364349 38.07047821 15.76245117 38.93334961 C16.00211105 39.67201767 16.24177094 40.41068573 16.48869324 41.17173767 C17 43 17 43 17 45 C6.77 45 -3.46 45 -14 45 C-13.26452504 39.85167526 -12.50142416 36.06468267 -10.8203125 31.2890625 C-10.38589844 30.04382813 -9.95148437 28.79859375 -9.50390625 27.515625 C-9.04448753 26.21867322 -8.58485077 24.92179865 -8.125 23.625 C-7.67257262 22.33614953 -7.22074511 21.04708832 -6.76953125 19.7578125 C-5.90473705 17.28734496 -5.03762051 14.81774401 -4.16894531 12.34863281 C-2.73670804 8.24575762 -1.35800284 4.1279689 0 0 Z " fill="#FEF9F9" transform="translate(594,117)"/>
<path d="M0 0 C13.82142857 0 13.82142857 0 18 3 C22.00113796 7.41504878 22.30362379 11.62647523 22.203125 17.36328125 C21.83927016 22.08639702 21.11292335 26.16672827 17.40625 29.3828125 C11.36939513 32.92080531 7.51134323 32 0 32 C0 21.44 0 10.88 0 0 Z " fill="#FBFCFD" transform="translate(1666,248)"/>
<path d="M0 0 C0.68606638 16.66887201 0.68606638 16.66887201 -5.5 23.9375 C-10.38422106 27.96698238 -15.94392575 27.48767801 -22 27 C-25.41942763 25.67409949 -26.52024805 24.84527724 -28.3125 21.6875 C-29.49836836 17.05183276 -29.56495221 14.20052346 -27.5 9.8125 C-22.48192915 4.16717029 -14.63898422 3.32006464 -7.5390625 1.6484375 C-1.08433735 0 -1.08433735 0 0 0 Z " fill="#FEFCFC" transform="translate(1206,165)"/>
<path d="M0 0 C4.01639742 2.32877355 6.98039248 4.61836878 8.69140625 9.046875 C9.18640625 13.501875 9.18640625 13.501875 9.69140625 18.046875 C-2.18859375 18.046875 -14.06859375 18.046875 -26.30859375 18.046875 C-25.30509394 11.02237631 -24.21629232 6.14698253 -18.55078125 1.65234375 C-12.79019096 -1.64775149 -6.22097694 -2.5683898 0 0 Z " fill="#FEFBFC" transform="translate(1476.30859375,136.953125)"/>
<path d="M0 0 C4.31358243 1.84409658 6.80870273 4.11690584 9.1328125 8.1640625 C9.7265625 10.3359375 9.7265625 10.3359375 9.7265625 18.3359375 C-2.1534375 18.3359375 -14.0334375 18.3359375 -26.2734375 18.3359375 C-24.33932883 10.59950282 -23.06060209 6.07614468 -16.6484375 1.4609375 C-11.22768527 -1.65246852 -5.93620769 -1.73394383 0 0 Z " fill="#FEFBFC" transform="translate(1569.2734375,136.6640625)"/>
<path d="M0 0 C3.83075794 1.59614914 5.78252057 3.53826822 8 7 C8.79893471 11.03462028 8.92775262 15.19603657 7.015625 18.9140625 C4.78364978 21.71092034 2.44957592 24.01440688 -1 25 C-5.73679066 25.4583991 -8.02668629 25.47747465 -12.3125 23.375 C-16.35070586 19.80635297 -17.77134963 16.82920294 -18.4375 11.5 C-17.91481184 7.3184947 -16.64184935 5.24570063 -14 2 C-9.53862011 -0.97425326 -5.23225066 -0.49867492 0 0 Z " fill="#EF546B" transform="translate(282,86)"/>
<path d="M0 0 C2.97 0 5.94 0 9 0 C9.33 14.19 9.66 28.38 10 43 C11.32 43.33 12.64 43.66 14 44 C14.33 46.31 14.66 48.62 15 51 C11.89951072 52.55024464 9.42105782 52.28992015 6 52 C2.61060444 49.86320715 1.27417443 48.8225233 0 45 C-0.08650584 43.51155284 -0.11770173 42.01951743 -0.11352539 40.52856445 C-0.11344986 39.62785721 -0.11337433 38.72714996 -0.11329651 37.79914856 C-0.10813522 36.83031235 -0.10297394 35.86147614 -0.09765625 34.86328125 C-0.0962413 33.86870407 -0.09482635 32.87412689 -0.09336853 31.84941101 C-0.08776761 28.67041018 -0.07521496 25.49147957 -0.0625 22.3125 C-0.05748512 20.15820414 -0.05292219 18.00390718 -0.04882812 15.84960938 C-0.03779787 10.56637916 -0.02053262 5.28320149 0 0 Z " fill="#123E79" transform="translate(1473,237)"/>
<path d="M0 0 C3.3 0 6.6 0 10 0 C10 12.21 10 24.42 10 37 C6.7 37 3.4 37 0 37 C0 24.79 0 12.58 0 0 Z " fill="#244D83" transform="translate(1453,251)"/>
<path d="M0 0 C14.72603431 -0.27270434 14.72603431 -0.27270434 18 2 C19.40457737 4.80915474 19.24895157 6.88810534 19 10 C17.22015595 13.1359157 16.47691793 13.84102736 13 15 C8.66328697 15.13501597 4.33988266 15.04296914 0 15 C0 10.05 0 5.1 0 0 Z " fill="#F0F3F6" transform="translate(1539,266)"/>
<path d="M0 0 C10.74695122 -0.42987805 10.74695122 -0.42987805 15 3 C16 4 16 4 16.3125 7.3125 C16 11 16 11 14.37109375 13.21484375 C10.05127561 16.46716153 5.22269687 15.22707378 0 15 C0 10.05 0 5.1 0 0 Z " fill="#F7F8FA" transform="translate(1377,247)"/>
<path d="M0 0 C2.9375 0.75 2.9375 0.75 4.9375 2.75 C6.04262986 8.37128554 5.32515065 12.86528432 2.25 17.6875 C-0.13398869 20.89257743 -2.34165469 23.1084506 -6.0625 24.75 C-6.7225 24.09 -7.3825 23.43 -8.0625 22.75 C-7.91075947 18.50126503 -4.70677189 15.79091267 -2.0625 12.75 C-1.7325 12.09 -1.4025 11.43 -1.0625 10.75 C-1.68125 10.62625 -2.3 10.5025 -2.9375 10.375 C-5.0625 9.75 -5.0625 9.75 -7.0625 7.75 C-6.875 4.75 -6.875 4.75 -6.0625 1.75 C-3.0625 -0.25 -3.0625 -0.25 0 0 Z " fill="#1A447D" transform="translate(1499.0625,277.25)"/>
<path d="M0 0 C2.19859531 1.64631658 2.91879469 2.53744816 3.3984375 5.26953125 C3.33341449 12.32452804 2.15256117 16.40588782 -2.4375 21.9375 C-5 24 -5 24 -7.3125 23.8125 C-7.869375 23.544375 -8.42625 23.27625 -9 23 C-9 19 -9 19 -6.5625 16.4375 C-5.716875 15.633125 -4.87125 14.82875 -4 14 C-3.67 13.01 -3.34 12.02 -3 11 C-3.639375 10.855625 -4.27875 10.71125 -4.9375 10.5625 C-7 10 -7 10 -8 9 C-8.45875252 3.72434608 -8.45875252 3.72434608 -6.8125 1.125 C-4.34492892 -0.40659584 -2.85480169 -0.42822025 0 0 Z " fill="#16417B" transform="translate(1257,277)"/>
<path d="M0 0 C2.10353495 -0.0810206 4.20795952 -0.13919907 6.3125 -0.1875 C7.48425781 -0.22230469 8.65601563 -0.25710937 9.86328125 -0.29296875 C13 0 13 0 14.890625 1.32421875 C16.64297386 3.97125276 16.44926608 5.91931827 16 9 C13.66471658 11.39101811 12.3368133 11.9672785 8.984375 12.29296875 C7.91703125 12.25816406 6.8496875 12.22335937 5.75 12.1875 C2.90375 12.0946875 2.90375 12.0946875 0 12 C0 8.04 0 4.08 0 0 Z " fill="#F5F7F9" transform="translate(1539,247)"/>
<path d="M0 0 C2 1 2 1 3.2890625 4.2734375 C3.74216125 5.63806434 4.18713794 7.0054082 4.625 8.375 C4.85445312 9.06078125 5.08390625 9.7465625 5.3203125 10.453125 C6.28795001 13.413635 7 15.86608457 7 19 C2.71 19 -1.58 19 -6 19 C-4.29446483 12.50272314 -2.47390635 6.2436684 0 0 Z " fill="#F1F3F7" transform="translate(1221,250)"/>
<path d="M0 0 C2 3 2 3 1.75 5.5625 C1 8 1 8 -1 10 C-4.13704316 10.333728 -6.16554166 10.52849028 -8.875 8.8125 C-10.40659584 6.34492892 -10.42822025 4.85480169 -10 2 C-7.59684073 -2.24086929 -4.21511384 -1.07293807 0 0 Z " fill="#1C467F" transform="translate(1356,278)"/>
<path d="M0 0 C2 3 2 3 1.75 5.5625 C1 8 1 8 -1 10 C-4.13704316 10.333728 -6.16554166 10.52849028 -8.875 8.8125 C-10.40659584 6.34492892 -10.42822025 4.85480169 -10 2 C-7.59684073 -2.24086929 -4.21511384 -1.07293807 0 0 Z " fill="#1C467F" transform="translate(1193,278)"/>
<path d="M0 0 C2.9375 0.75 2.9375 0.75 4.9375 2.75 C4.6875 6.3125 4.6875 6.3125 3.9375 9.75 C1.13879973 11.14935013 -0.96748792 11.00265405 -4.0625 10.75 C-6 9.625 -6 9.625 -7.0625 7.75 C-6.9375 4.6875 -6.9375 4.6875 -6.0625 1.75 C-3.0625 -0.25 -3.0625 -0.25 0 0 Z " fill="#1B457E" transform="translate(1581.0625,277.25)"/>
<path d="M0 0 C1.8125 1.125 1.8125 1.125 3 3 C3.3125 6.0625 3.3125 6.0625 3 9 C1 11 1 11 -2.5 11.25 C-6 11 -6 11 -8 9 C-8.3125 5.5 -8.3125 5.5 -8 2 C-4.76746204 -0.15502531 -3.74849077 -0.46856135 0 0 Z " fill="#1A447D" transform="translate(1643,277)"/>
<path d="M0 0 C1.7325 0.1546875 1.7325 0.1546875 3.5 0.3125 C5.5 3.3125 5.5 3.3125 5.25 5.875 C4.5 8.3125 4.5 8.3125 2.5 10.3125 C-0.5 10.5625 -0.5 10.5625 -3.5 10.3125 C-5.5 8.3125 -5.5 8.3125 -5.75 5.3125 C-5.37833659 0.85253908 -4.40663794 0.39344982 0 0 Z " fill="#17437C" transform="translate(1458.5,236.6875)"/>
</svg>
